<?xml version="1.0" encoding="UTF-8" standalone="no"?>
<svg
   xmlns:dc="http://purl.org/dc/elements/1.1/"
   xmlns:cc="http://creativecommons.org/ns#"
   xmlns:rdf="http://www.w3.org/1999/02/22-rdf-syntax-ns#"
   xmlns:svg="http://www.w3.org/2000/svg"
   xmlns="http://www.w3.org/2000/svg"
   viewBox="0 0 575.82666 142.96001"
   height="142.96001"
   width="575.82666"
   xml:space="preserve"
   id="svg2"
   version="1.1"><metadata
     id="metadata8"><rdf:RDF><cc:Work
         rdf:about=""><dc:format>image/svg+xml</dc:format><dc:type
           rdf:resource="http://purl.org/dc/dcmitype/StillImage" /></cc:Work></rdf:RDF></metadata><defs
     id="defs6" /><g
     transform="matrix(1.3333333,0,0,-1.3333333,0,142.96)"
     id="g10"><g
       transform="scale(0.1)"
       id="g12"><path
         id="path14"
         style="fill:#fbf9fb;fill-opacity:1;fill-rule:nonzero;stroke:none"
         d="m 1376.56,394.242 h 119.68 l 90.43,-265.898 h 1.08 l 85.57,265.898 h 119.67 V 7.58203 h -79.6 V 281.605 h -1.09 L 1617.54,7.58203 h -65.53 L 1457.25,278.891 h -1.09 V 7.58203 h -79.6 V 394.242" /><path
         id="path16"
         style="fill:#fbf9fb;fill-opacity:1;fill-rule:nonzero;stroke:none"
         d="m 2037.23,177.629 c -7.03,38.996 -23.83,59.562 -61.19,59.562 -48.74,0 -62.82,-37.902 -63.9,-59.562 z m -125.09,-48.738 c 2.17,-48.7426 25.99,-70.9418 68.77,-70.9418 30.87,0 55.78,18.9492 60.66,36.2813 h 67.69 C 2087.6,28.1719 2041.57,0 1978.21,0 c -88.27,0 -142.97,60.6602 -142.97,147.309 0,83.925 57.94,147.832 142.97,147.832 95.31,0 141.34,-80.149 135.92,-166.25 h -201.99" /><path
         id="path18"
         style="fill:#fbf9fb;fill-opacity:1;fill-rule:nonzero;stroke:none"
         d="m 2297.71,237.191 c -50.36,0 -67.69,-43.32 -67.69,-89.347 0,-43.867 20.03,-89.8948 67.69,-89.8948 50.9,0 66.07,44.4058 66.07,90.4338 0,45.488 -16.25,88.808 -66.07,88.808 z m 67.15,-193.8707 h -1.08 C 2345.91,13 2314.5,0 2278.75,0 c -84.47,0 -125.63,72.5703 -125.63,150.004 0,75.273 41.7,145.137 124.01,145.137 33.04,0 65.53,-14.082 83.4,-41.7 h -0.54 1.08 v 140.801 h 76.9 V 7.58203 h -73.11 V 43.3203" /><path
         id="path20"
         style="fill:#fbf9fb;fill-opacity:1;fill-rule:nonzero;stroke:none"
         d="m 2498.08,287.563 h 76.9 V 7.58203 h -76.9 z m 76.9,43.32 h -76.9 v 63.359 h 76.9 v -63.359" /><path
         id="path22"
         style="fill:#fbf9fb;fill-opacity:1;fill-rule:nonzero;stroke:none"
         d="m 2810,144.594 c -12.99,-11.367 -40.07,-11.914 -63.9,-16.25 -23.82,-4.864 -45.48,-12.989 -45.48,-41.1526 0,-28.7031 22.2,-35.7422 47.11,-35.7422 60.11,0 62.27,47.6563 62.27,64.4418 z m -177.62,56.855 c 4.33,72.031 68.78,93.692 131.59,93.692 55.78,0 122.93,-12.461 122.93,-79.61 V 69.8711 c 0,-25.4492 2.71,-50.9102 9.75,-62.28907 h -77.98 C 2815.96,16.25 2813.79,25.4492 2813.25,34.6602 2788.88,9.21094 2753.14,0 2719.02,0 c -53.06,0 -95.3,26.5508 -95.3,83.9492 0,63.3598 47.65,78.5158 95.3,85.0198 47.12,7.031 90.98,5.41 90.98,36.816 0,33.035 -22.74,37.91 -49.82,37.91 -29.24,0 -48.19,-11.914 -50.9,-42.246 h -76.9" /><path
         id="path24"
         style="fill:#fbf9fb;fill-opacity:1;fill-rule:nonzero;stroke:none"
         d="m 3105.14,394.242 h 271.85 v -71.484 h -186.83 v -89.356 h 161.92 V 167.336 H 3190.16 V 7.58203 h -85.02 V 394.242" /><path
         id="path26"
         style="fill:#fbf9fb;fill-opacity:1;fill-rule:nonzero;stroke:none"
         d="m 3674.29,7.58203 h -73.11 V 46.5703 h -1.62 C 3580.06,15.1719 3546.48,0 3513.99,0 3432.23,0 3411.64,46.0391 3411.64,115.355 v 172.208 h 76.9 V 129.438 c 0,-46.0357 13.54,-68.7778 49.28,-68.7778 41.7,0 59.57,23.289 59.57,80.1448 v 146.758 h 76.9 V 7.58203" /><path
         id="path28"
         style="fill:#fbf9fb;fill-opacity:1;fill-rule:nonzero;stroke:none"
         d="m 3732.77,287.563 h 73.12 v -38.997 h 1.62 c 19.49,31.418 53.07,46.575 85.57,46.575 81.76,0 102.34,-46.036 102.34,-115.352 V 7.58203 h -76.89 V 165.715 c 0,46.027 -13.54,68.781 -49.28,68.781 -41.7,0 -59.57,-23.293 -59.57,-80.156 V 7.58203 h -76.91 V 287.563" /><path
         id="path30"
         style="fill:#fbf9fb;fill-opacity:1;fill-rule:nonzero;stroke:none"
         d="m 4178.46,237.191 c -50.36,0 -67.69,-43.32 -67.69,-89.347 0,-43.867 20.04,-89.8948 67.69,-89.8948 50.91,0 66.07,44.4058 66.07,90.4338 0,45.488 -16.25,88.808 -66.07,88.808 z m 67.16,-193.8707 h -1.09 C 4226.66,13 4195.25,0 4159.51,0 c -84.48,0 -125.64,72.5703 -125.64,150.004 0,75.273 41.7,145.137 124.01,145.137 33.04,0 65.53,-14.082 83.4,-41.7 h -0.54 1.08 v 140.801 h 76.9 V 7.58203 h -73.1 V 43.3203" /><path
         id="path32"
         style="fill:#fbf9fb;fill-opacity:1;fill-rule:nonzero;stroke:none"
         d="m 1622.08,933.02 c -5.41,38.449 -42.24,67.69 -84.48,67.69 -76.35,0 -105.06,-64.983 -105.06,-132.675 0,-64.445 28.71,-129.43 105.06,-129.43 51.99,0 81.23,35.743 87.73,86.649 h 82.31 c -8.66,-96.395 -75.27,-158.125 -170.04,-158.125 -119.68,0 -190.08,89.348 -190.08,200.906 0,114.805 70.4,204.155 190.08,204.155 85.02,0 156.5,-49.82 166.79,-139.17 h -82.31" /><path
         id="path34"
         style="fill:#fbf9fb;fill-opacity:1;fill-rule:nonzero;stroke:none"
         d="m 1931.85,813.336 c -13,-11.371 -40.08,-11.914 -63.91,-16.242 -23.82,-4.875 -45.48,-13 -45.48,-41.16 0,-28.7 22.2,-35.743 47.11,-35.743 60.11,0 62.28,47.657 62.28,64.446 z m -177.63,56.863 c 4.33,72.024 68.78,93.684 131.6,93.684 55.77,0 122.92,-12.453 122.92,-79.602 V 738.605 c 0,-25.449 2.71,-50.902 9.75,-62.273 h -77.98 c -2.71,8.668 -4.88,17.871 -5.42,27.074 -24.37,-25.449 -60.1,-34.656 -94.22,-34.656 -53.07,0 -95.31,26.535 -95.31,83.938 0,63.359 47.65,78.523 95.31,85.019 47.11,7.043 90.98,5.418 90.98,36.828 0,33.031 -22.75,37.903 -49.83,37.903 -29.24,0 -48.19,-11.915 -50.9,-42.239 h -76.9" /><path
         id="path36"
         style="fill:#fbf9fb;fill-opacity:1;fill-rule:nonzero;stroke:none"
         d="m 2068.31,956.305 h 73.11 v -38.992 h 1.62 c 19.5,31.41 53.07,46.57 85.56,46.57 81.78,0 102.35,-46.028 102.35,-115.344 V 676.332 h -76.89 v 158.129 c 0,46.031 -13.54,68.773 -49.28,68.773 -41.7,0 -59.57,-23.285 -59.57,-80.144 V 676.332 h -76.9 v 279.973" /><path
         id="path38"
         style="fill:#fbf9fb;fill-opacity:1;fill-rule:nonzero;stroke:none"
         d="m 2563.81,813.336 c -12.99,-11.371 -40.07,-11.914 -63.9,-16.242 -23.83,-4.875 -45.49,-13 -45.49,-41.16 0,-28.7 22.21,-35.743 47.12,-35.743 60.11,0 62.27,47.657 62.27,64.446 z m -177.62,56.863 c 4.33,72.024 68.78,93.684 131.59,93.684 55.78,0 122.93,-12.453 122.93,-79.602 V 738.605 c 0,-25.449 2.71,-50.902 9.75,-62.273 h -77.98 c -2.71,8.668 -4.88,17.871 -5.42,27.074 -24.37,-25.449 -60.11,-34.656 -94.23,-34.656 -53.06,0 -95.31,26.535 -95.31,83.938 0,63.359 47.66,78.523 95.31,85.019 47.12,7.043 90.98,5.418 90.98,36.828 0,33.031 -22.74,37.903 -49.82,37.903 -29.24,0 -48.19,-11.915 -50.9,-42.239 h -76.9" /><path
         id="path40"
         style="fill:#fbf9fb;fill-opacity:1;fill-rule:nonzero;stroke:none"
         d="m 2830.24,905.941 c -50.36,0 -67.69,-43.32 -67.69,-89.351 0,-43.867 20.04,-89.899 67.69,-89.899 50.91,0 66.07,44.411 66.07,90.442 0,45.488 -16.25,88.808 -66.07,88.808 z m 67.15,-193.867 h -1.08 c -17.87,-30.328 -49.28,-43.324 -85.02,-43.324 -84.48,0 -125.64,72.566 -125.64,150.004 0,75.273 41.7,145.129 124.02,145.129 33.03,0 65.52,-14.074 83.39,-41.699 h -0.54 1.08 v 140.796 h 76.9 V 676.332 h -73.11 v 35.742" /><path
         id="path42"
         style="fill:#fbf9fb;fill-opacity:1;fill-rule:nonzero;stroke:none"
         d="m 3202.82,813.336 c -13,-11.371 -40.07,-11.914 -63.9,-16.242 -23.83,-4.875 -45.49,-13 -45.49,-41.16 0,-28.7 22.2,-35.743 47.12,-35.743 60.1,0 62.27,47.657 62.27,64.446 z m -177.62,56.863 c 4.33,72.024 68.77,93.684 131.59,93.684 55.78,0 122.93,-12.453 122.93,-79.602 V 738.605 c 0,-25.449 2.7,-50.902 9.74,-62.273 h -77.98 c -2.7,8.668 -4.87,17.871 -5.41,27.074 -24.37,-25.449 -60.11,-34.656 -94.22,-34.656 -53.08,0 -95.32,26.535 -95.32,83.938 0,63.359 47.66,78.523 95.32,85.019 47.11,7.043 90.97,5.418 90.97,36.828 0,33.031 -22.74,37.903 -49.82,37.903 -29.25,0 -48.2,-11.915 -50.91,-42.239 h -76.89" /><path
         id="path44"
         style="fill:#817e7f;fill-opacity:1;fill-rule:nonzero;stroke:none"
         d="M 0,124.984 H 117.676 V 7.33984 L 0,7.33984 V 124.984" /><path
         id="path46"
         style="fill:#817e7f;fill-opacity:1;fill-rule:nonzero;stroke:none"
         d="M 235.352,124.965 H 353.047 V 7.35156 H 235.352 V 124.965" /><path
         id="path48"
         style="fill:#817e7f;fill-opacity:1;fill-rule:nonzero;stroke:none"
         d="M 470.723,124.965 H 588.379 V 7.35156 H 470.723 V 124.965" /><path
         id="path50"
         style="fill:#817e7f;fill-opacity:1;fill-rule:nonzero;stroke:none"
         d="M 706.035,124.965 H 823.711 V 7.35156 H 706.035 V 124.965" /><path
         id="path52"
         style="fill:#6a6868;fill-opacity:1;fill-rule:nonzero;stroke:none"
         d="M 117.695,124.984 H 235.391 V 7.33984 H 117.695 V 124.984" /><path
         id="path54"
         style="fill:#6a6868;fill-opacity:1;fill-rule:nonzero;stroke:none"
         d="M 353.027,124.984 H 470.723 V 7.33984 H 353.027 V 124.984" /><path
         id="path56"
         style="fill:#6a6868;fill-opacity:1;fill-rule:nonzero;stroke:none"
         d="M 588.34,124.984 H 706.035 V 7.33984 H 588.34 V 124.984" /><path
         id="path58"
         style="fill:#6a6868;fill-opacity:1;fill-rule:nonzero;stroke:none"
         d="M 823.711,124.984 H 941.406 V 7.33984 H 823.711 V 124.984" /><path
         id="path60"
         style="fill:#817e7f;fill-opacity:1;fill-rule:nonzero;stroke:none"
         d="M 941.406,124.965 H 1059.04 V 7.35156 H 941.406 V 124.965" /><path
         id="path62"
         style="fill:#8d8b8c;fill-opacity:1;fill-rule:nonzero;stroke:none"
         d="M 0,242.668 H 117.676 V 125.023 H 0 v 117.645" /><path
         id="path64"
         style="fill:#817e7f;fill-opacity:1;fill-rule:nonzero;stroke:none"
         d="M 117.695,242.668 H 235.391 V 125.023 H 117.695 v 117.645" /><path
         id="path66"
         style="fill:#8d8b8c;fill-opacity:1;fill-rule:nonzero;stroke:none"
         d="M 235.352,242.668 H 353.047 V 125.023 H 235.352 v 117.645" /><path
         id="path68"
         style="fill:#817e7f;fill-opacity:1;fill-rule:nonzero;stroke:none"
         d="M 353.027,242.668 H 470.723 V 125.023 H 353.027 v 117.645" /><path
         id="path70"
         style="fill:#8d8b8c;fill-opacity:1;fill-rule:nonzero;stroke:none"
         d="M 470.723,242.668 H 588.379 V 125.023 H 470.723 v 117.645" /><path
         id="path72"
         style="fill:#817e7f;fill-opacity:1;fill-rule:nonzero;stroke:none"
         d="M 588.34,242.668 H 706.035 V 125.023 H 588.34 v 117.645" /><path
         id="path74"
         style="fill:#8d8b8c;fill-opacity:1;fill-rule:nonzero;stroke:none"
         d="M 706.035,242.668 H 823.711 V 125.023 H 706.035 v 117.645" /><path
         id="path76"
         style="fill:#817e7f;fill-opacity:1;fill-rule:nonzero;stroke:none"
         d="M 823.711,242.668 H 941.406 V 125.023 H 823.711 v 117.645" /><path
         id="path78"
         style="fill:#8d8b8c;fill-opacity:1;fill-rule:nonzero;stroke:none"
         d="M 941.406,242.668 H 1059.04 V 125.023 H 941.406 v 117.645" /><path
         id="path80"
         style="fill:#817e7f;fill-opacity:1;fill-rule:nonzero;stroke:none"
         d="M 0,360.297 H 117.676 V 242.648 H 0 v 117.649" /><path
         id="path82"
         style="fill:#a19fa0;fill-opacity:1;fill-rule:nonzero;stroke:none"
         d="M 117.695,360.297 H 235.391 V 242.648 H 117.695 v 117.649" /><path
         id="path84"
         style="fill:#878585;fill-opacity:1;fill-rule:nonzero;stroke:none"
         d="M 235.352,360.297 H 353.047 V 242.648 H 235.352 v 117.649" /><path
         id="path86"
         style="fill:#aeadad;fill-opacity:1;fill-rule:nonzero;stroke:none"
         d="M 353.027,360.297 H 470.723 V 242.648 H 353.027 v 117.649" /><path
         id="path88"
         style="fill:#817e7f;fill-opacity:1;fill-rule:nonzero;stroke:none"
         d="M 470.723,360.297 H 588.379 V 242.648 H 470.723 v 117.649" /><path
         id="path90"
         style="fill:#8d8b8c;fill-opacity:1;fill-rule:nonzero;stroke:none"
         d="M 588.34,360.297 H 706.035 V 242.648 H 588.34 v 117.649" /><path
         id="path92"
         style="fill:#aeadad;fill-opacity:1;fill-rule:nonzero;stroke:none"
         d="M 706.035,360.297 H 823.711 V 242.648 H 706.035 v 117.649" /><path
         id="path94"
         style="fill:#8d8b8c;fill-opacity:1;fill-rule:nonzero;stroke:none"
         d="M 823.711,360.297 H 941.406 V 242.648 H 823.711 v 117.649" /><path
         id="path96"
         style="fill:#878585;fill-opacity:1;fill-rule:nonzero;stroke:none"
         d="M 941.406,360.297 H 1059.04 V 242.648 H 941.406 v 117.649" /><path
         id="path98"
         style="fill:#aeadad;fill-opacity:1;fill-rule:nonzero;stroke:none"
         d="M 0,477.953 H 117.676 V 360.297 H 0 v 117.656" /><path
         id="path100"
         style="fill:#cccbcb;fill-opacity:1;fill-rule:nonzero;stroke:none"
         d="M 117.695,477.953 H 235.391 V 360.297 H 117.695 v 117.656" /><path
         id="path102"
         style="fill:#a4a3a3;fill-opacity:1;fill-rule:nonzero;stroke:none"
         d="M 235.352,477.953 H 353.047 V 360.297 H 235.352 v 117.656" /><path
         id="path104"
         style="fill:#989797;fill-opacity:1;fill-rule:nonzero;stroke:none"
         d="M 353.027,477.953 H 470.723 V 360.297 H 353.027 v 117.656" /><path
         id="path106"
         style="fill:#acaaab;fill-opacity:1;fill-rule:nonzero;stroke:none"
         d="M 470.723,477.953 H 588.34 V 360.297 H 470.723 v 117.656" /><path
         id="path108"
         style="fill:#dedede;fill-opacity:1;fill-rule:nonzero;stroke:none"
         d="M 588.34,477.953 H 706.035 V 360.297 H 588.34 v 117.656" /><path
         id="path110"
         style="fill:#a19fa0;fill-opacity:1;fill-rule:nonzero;stroke:none"
         d="M 706.035,477.953 H 823.711 V 360.297 H 706.035 v 117.656" /><path
         id="path112"
         style="fill:#878585;fill-opacity:1;fill-rule:nonzero;stroke:none"
         d="M 823.711,477.953 H 941.406 V 360.297 H 823.711 v 117.656" /><path
         id="path114"
         style="fill:#bab8b9;fill-opacity:1;fill-rule:nonzero;stroke:none"
         d="M 941.406,477.953 H 1059.04 V 360.297 H 941.406 v 117.656" /><path
         id="path116"
         style="fill:#dedede;fill-opacity:1;fill-rule:nonzero;stroke:none"
         d="M 0,595.629 H 117.676 V 477.953 H 0 v 117.676" /><path
         id="path118"
         style="fill:#bab8b9;fill-opacity:1;fill-rule:nonzero;stroke:none"
         d="M 117.695,595.629 H 235.391 V 477.953 H 117.695 v 117.676" /><path
         id="path120"
         style="fill:#989696;fill-opacity:1;fill-rule:nonzero;stroke:none"
         d="M 235.352,595.629 H 353.047 V 477.953 H 235.352 v 117.676" /><path
         id="path122"
         style="fill:#dedede;fill-opacity:1;fill-rule:nonzero;stroke:none"
         d="M 353.027,595.629 H 470.723 V 477.953 H 353.027 v 117.676" /><path
         id="path124"
         style="fill:#c6c5c5;fill-opacity:1;fill-rule:nonzero;stroke:none"
         d="M 470.723,595.629 H 588.34 V 477.953 H 470.723 v 117.676" /><path
         id="path126"
         style="fill:#a6a5a5;fill-opacity:1;fill-rule:nonzero;stroke:none"
         d="M 588.34,595.629 H 706.035 V 477.953 H 588.34 v 117.676" /><path
         id="path128"
         style="fill:#d8d7d7;fill-opacity:1;fill-rule:nonzero;stroke:none"
         d="M 706.035,595.629 H 823.711 V 477.953 H 706.035 v 117.676" /><path
         id="path130"
         style="fill:#c2c1c2;fill-opacity:1;fill-rule:nonzero;stroke:none"
         d="M 823.711,595.629 H 941.406 V 477.953 H 823.711 v 117.676" /><path
         id="path132"
         style="fill:#a19fa0;fill-opacity:1;fill-rule:nonzero;stroke:none"
         d="M 941.406,595.629 H 1059.04 V 477.953 H 941.406 v 117.676" /><path
         id="path134"
         style="fill:#bab8b9;fill-opacity:1;fill-rule:nonzero;stroke:none"
         d="M 0,713.344 H 117.676 V 595.695 H 0 v 117.649" /><path
         id="path136"
         style="fill:#999797;fill-opacity:1;fill-rule:nonzero;stroke:none"
         d="M 117.695,713.344 H 235.391 V 595.695 H 117.695 v 117.649" /><path
         id="path138"
         style="fill:#bab8b9;fill-opacity:1;fill-rule:nonzero;stroke:none"
         d="M 235.352,713.344 H 353.047 V 595.695 H 235.352 v 117.649" /><path
         id="path140"
         style="fill:#999797;fill-opacity:1;fill-rule:nonzero;stroke:none"
         d="M 353.027,713.344 H 470.723 V 595.695 H 353.027 v 117.649" /><path
         id="path142"
         style="fill:#bab8b9;fill-opacity:1;fill-rule:nonzero;stroke:none"
         d="M 470.723,713.344 H 588.379 V 595.695 H 470.723 v 117.649" /><path
         id="path144"
         style="fill:#999797;fill-opacity:1;fill-rule:nonzero;stroke:none"
         d="M 588.34,713.344 H 706.035 V 595.695 H 588.34 v 117.649" /><path
         id="path146"
         style="fill:#bab8b9;fill-opacity:1;fill-rule:nonzero;stroke:none"
         d="M 706.035,713.344 H 823.711 V 595.695 H 706.035 v 117.649" /><path
         id="path148"
         style="fill:#999797;fill-opacity:1;fill-rule:nonzero;stroke:none"
         d="M 823.711,713.344 H 941.406 V 595.695 H 823.711 v 117.649" /><path
         id="path150"
         style="fill:#bab8b9;fill-opacity:1;fill-rule:nonzero;stroke:none"
         d="M 941.406,713.344 H 1059.04 V 595.695 H 941.406 v 117.649" /><path
         id="path152"
         style="fill:#dedede;fill-opacity:1;fill-rule:nonzero;stroke:none"
         d="M 0,830.941 H 117.676 V 713.266 H 0 v 117.675" /><path
         id="path154"
         style="fill:#bab8b9;fill-opacity:1;fill-rule:nonzero;stroke:none"
         d="M 117.695,830.941 H 235.391 V 713.266 H 117.695 v 117.675" /><path
         id="path156"
         style="fill:#dedede;fill-opacity:1;fill-rule:nonzero;stroke:none"
         d="M 235.352,830.941 H 353.047 V 713.266 H 235.352 v 117.675" /><path
         id="path158"
         style="fill:#bab8b9;fill-opacity:1;fill-rule:nonzero;stroke:none"
         d="M 353.027,830.941 H 470.723 V 713.266 H 353.027 v 117.675" /><path
         id="path160"
         style="fill:#dedede;fill-opacity:1;fill-rule:nonzero;stroke:none"
         d="M 470.723,830.941 H 588.379 V 713.266 H 470.723 v 117.675" /><path
         id="path162"
         style="fill:#bab8b9;fill-opacity:1;fill-rule:nonzero;stroke:none"
         d="M 588.34,830.941 H 706.035 V 713.266 H 588.34 v 117.675" /><path
         id="path164"
         style="fill:#dedede;fill-opacity:1;fill-rule:nonzero;stroke:none"
         d="M 706.035,830.941 H 823.711 V 713.266 H 706.035 v 117.675" /><path
         id="path166"
         style="fill:#bab8b9;fill-opacity:1;fill-rule:nonzero;stroke:none"
         d="M 823.711,830.941 H 941.406 V 713.266 H 823.711 v 117.675" /><path
         id="path168"
         style="fill:#dedede;fill-opacity:1;fill-rule:nonzero;stroke:none"
         d="M 941.406,830.941 H 1059.04 V 713.266 H 941.406 v 117.675" /><path
         id="path170"
         style="fill:#eae9e9;fill-opacity:1;fill-rule:nonzero;stroke:none"
         d="M 0,948.637 H 117.676 V 830.988 H 0 v 117.649" /><path
         id="path172"
         style="fill:#d4d3d4;fill-opacity:1;fill-rule:nonzero;stroke:none"
         d="M 117.695,948.637 H 235.391 V 830.988 H 117.695 v 117.649" /><path
         id="path174"
         style="fill:#eae9e9;fill-opacity:1;fill-rule:nonzero;stroke:none"
         d="M 235.352,948.637 H 353.047 V 830.988 H 235.352 v 117.649" /><path
         id="path176"
         style="fill:#d4d3d4;fill-opacity:1;fill-rule:nonzero;stroke:none"
         d="M 353.027,948.637 H 470.723 V 830.988 H 353.027 v 117.649" /><path
         id="path178"
         style="fill:#eae9e9;fill-opacity:1;fill-rule:nonzero;stroke:none"
         d="M 470.723,948.637 H 588.379 V 830.988 H 470.723 v 117.649" /><path
         id="path180"
         style="fill:#d4d3d4;fill-opacity:1;fill-rule:nonzero;stroke:none"
         d="M 588.34,948.637 H 706.035 V 830.988 H 588.34 v 117.649" /><path
         id="path182"
         style="fill:#eae9e9;fill-opacity:1;fill-rule:nonzero;stroke:none"
         d="M 706.035,948.637 H 823.711 V 830.988 H 706.035 v 117.649" /><path
         id="path184"
         style="fill:#d4d3d4;fill-opacity:1;fill-rule:nonzero;stroke:none"
         d="M 823.711,948.637 H 941.406 V 830.988 H 823.711 v 117.649" /><path
         id="path186"
         style="fill:#eae9e9;fill-opacity:1;fill-rule:nonzero;stroke:none"
         d="M 941.406,948.637 H 1059.04 V 830.988 H 941.406 v 117.649" /><path
         id="path188"
         style="fill:#f3f2f2;fill-opacity:1;fill-rule:nonzero;stroke:none"
         d="M 0,1066.31 H 117.676 V 948.656 H 0 v 117.654" /><path
         id="path190"
         style="fill:#eaeaea;fill-opacity:1;fill-rule:nonzero;stroke:none"
         d="M 117.695,1066.31 H 235.391 V 948.656 H 117.695 v 117.654" /><path
         id="path192"
         style="fill:#f3f2f2;fill-opacity:1;fill-rule:nonzero;stroke:none"
         d="M 235.352,1066.31 H 353.047 V 948.656 H 235.352 v 117.654" /><path
         id="path194"
         style="fill:#eaeaea;fill-opacity:1;fill-rule:nonzero;stroke:none"
         d="M 353.027,1066.31 H 470.723 V 948.656 H 353.027 v 117.654" /><path
         id="path196"
         style="fill:#f3f2f2;fill-opacity:1;fill-rule:nonzero;stroke:none"
         d="M 470.723,1066.31 H 588.379 V 948.656 H 470.723 v 117.654" /><path
         id="path198"
         style="fill:#eaeaea;fill-opacity:1;fill-rule:nonzero;stroke:none"
         d="M 588.34,1066.31 H 706.035 V 948.656 H 588.34 v 117.654" /><path
         id="path200"
         style="fill:#f3f2f2;fill-opacity:1;fill-rule:nonzero;stroke:none"
         d="M 706.035,1066.31 H 823.711 V 948.656 H 706.035 v 117.654" /><path
         id="path202"
         style="fill:#eaeaea;fill-opacity:1;fill-rule:nonzero;stroke:none"
         d="M 823.711,1066.31 H 941.406 V 948.656 H 823.711 v 117.654" /><path
         id="path204"
         style="fill:#f3f2f2;fill-opacity:1;fill-rule:nonzero;stroke:none"
         d="M 941.406,1066.31 H 1059.04 V 948.656 H 941.406 v 117.654" /></g></g></svg>