<?xml version="1.0" encoding="UTF-8" standalone="no"?>
<svg
   xmlns:dc="http://purl.org/dc/elements/1.1/"
   xmlns:cc="http://creativecommons.org/ns#"
   xmlns:rdf="http://www.w3.org/1999/02/22-rdf-syntax-ns#"
   xmlns:svg="http://www.w3.org/2000/svg"
   xmlns="http://www.w3.org/2000/svg"
   viewBox="0 0 728.76001 286.78668"
   height="286.78668"
   width="728.76001"
   xml:space="preserve"
   id="svg2"
   version="1.1"><metadata
     id="metadata8"><rdf:RDF><cc:Work
         rdf:about=""><dc:format>image/svg+xml</dc:format><dc:type
           rdf:resource="http://purl.org/dc/dcmitype/StillImage" /></cc:Work></rdf:RDF></metadata><defs
     id="defs6" /><g
     transform="matrix(1.3333333,0,0,-1.3333333,0,286.78667)"
     id="g10"><g
       transform="scale(0.1)"
       id="g12"><path
         id="path14"
         style="fill:#FFFFFF;fill-opacity:1;fill-rule:nonzero;stroke:none"
         d="m 1020.61,1133.77 c -136.883,0 -269.102,117.82 -366.231,212.8 128.703,64.61 208.289,225.47 208.289,374.93 0,258.38 -193.09,429.37 -423.566,429.37 -230.493,0 -434.07856,-177.32 -434.07856,-436.97 0,-250.79 186.05056,-436.98 414.19556,-436.98 32.758,0 64.344,5.05 95.933,12.66 90.082,-77.27 257.403,-220.41 373.254,-220.41 54.996,0 108.805,24.05 148.584,64.6 h -16.38 z M 437.914,1368.1 c -176.652,0 -299.496,162.15 -299.496,368.59 0,165.94 106.48,322.98 293.66,322.98 196.57,0 297.18,-187.46 297.18,-363.5 0,-186.21 -115.824,-328.07 -291.344,-328.07 v 0" /><path
         id="path16"
         style="fill:#FFFFFF;fill-opacity:1;fill-rule:nonzero;stroke:none"
         d="m 1355.36,1878.23 c 30.34,0 66.51,-5.03 87.52,16.31 h 3.51 v -460.91 c 0,-58.26 -7,-105.12 44.45,-134.25 v -3.8 h -150.65 v 84.09 c -42.11,-69.37 -86.54,-98.42 -168.41,-98.42 -137.94,0 -203.272,84.54 -203.272,262.51 v 194.37 c 0,58.06 7.004,104.77 -44.449,136.33 v 3.77 h 75.961 c 25.67,0 54.83,1.26 71.19,16.31 h 3.5 v -328.65 c 0,-116.54 30.41,-188.74 132.13,-188.74 77.2,0 133.35,68.4 133.35,165.94 v 195.07 c 0,59.54 7.01,105.14 -44.45,138.09 v 3.79 l 59.62,-1.81 v 0" /><path
         id="path18"
         style="fill:#FFFFFF;fill-opacity:1;fill-rule:nonzero;stroke:none"
         d="m 2091.8,1609.13 c 4.65,162.67 -104.14,285.41 -263.24,285.41 -174.3,0 -292.37,-126.49 -292.37,-301.91 0,-176.74 136.78,-311.38 335.67,-311.38 54.97,0 111.12,8.75 161.45,31.27 l 58.49,118.62 h -3.53 c -53.83,-45.75 -121.66,-67.37 -191.86,-67.37 -132.19,0 -231.61,90.27 -233.96,245.36 h 429.35 z m -424.67,73.47 c 14.05,79.17 72.53,129.42 150.91,129.42 84.24,0 138.03,-41.46 150.9,-129.42 h -301.81 v 0" /><path
         id="path20"
         style="fill:#FFFFFF;fill-opacity:1;fill-rule:nonzero;stroke:none"
         d="m 2205.22,2128.87 c 28,0 57.17,0 73.52,20.27 h 3.49 v -763.8 c 31.38,-8.8 63.94,-15.09 96.48,-15.09 127.84,0 201.07,89.41 201.07,214.04 0,122.13 -56.95,216.57 -174.34,216.57 -37.18,0 -66.24,-10.07 -97.63,-27.7 l 62.77,107.46 c 26.72,10.11 54.61,13.92 82.52,13.92 132.54,0 245.23,-115.07 245.23,-287.59 0,-197.68 -133.65,-325.47 -345.2,-325.47 -79.05,0 -154.91,13.95 -212.18,22.81 v 3.81 c 38.59,17.76 35.09,59.61 35.09,101.17 v 580.27 c 0,58.27 7.01,103.87 -43.28,135.53 v 3.8 h 72.46 v 0" /><path
         id="path22"
         style="fill:#FFFFFF;fill-opacity:1;fill-rule:nonzero;stroke:none"
         d="m 3339.51,1609.13 c 4.69,162.67 -104.09,285.41 -263.21,285.41 -174.29,0 -292.38,-126.49 -292.38,-301.91 0,-176.74 136.8,-311.38 335.67,-311.38 54.99,0 111.14,8.75 161.43,31.27 l 58.49,118.62 h -3.48 c -53.83,-45.75 -121.68,-67.37 -191.87,-67.37 -132.2,0 -231.62,90.27 -233.96,245.36 h 429.31 z m -424.65,73.47 c 14.04,79.17 72.55,129.42 150.94,129.42 84.2,0 138.02,-41.46 150.9,-129.42 h -301.84 v 0" /><path
         id="path24"
         style="fill:#FFFFFF;fill-opacity:1;fill-rule:nonzero;stroke:none"
         d="m 3882.47,1749.96 h -3.5 c -33.94,41.8 -90.09,62.06 -142.73,62.06 -113.47,0 -195.36,-86.13 -195.36,-206.4 0,-145.62 113.46,-241.85 243.33,-241.85 59.63,0 125.17,25.31 170.79,62.04 h 3.51 l -60.83,-119.55 c -49.16,-20 -102.94,-25.01 -154.42,-25.01 -180.16,0 -320.92,126.85 -320.92,291.44 0,217.8 157.15,321.85 333.79,321.85 42.13,0 85.4,-4.99 126.34,-15 v -129.58 0" /><path
         id="path26"
         style="fill:#FFFFFF;fill-opacity:1;fill-rule:nonzero;stroke:none"
         d="m 1930.47,1999 c 0,58.89 0,126.68 0,126.68 -84.96,-37.48 -127.45,-73.16 -195.41,-158.79 v -51.71 c 113.86,76.7 195.41,80.27 195.41,83.82 v 0" /><path
         id="path28"
         style="fill:#FFFFFF;fill-opacity:1;fill-rule:nonzero;stroke:none"
         d="m 4168.34,2142.52 h 554.01 V 1810.5 h -554.01 v 332.02 0" /><path
         id="path30"
         style="fill:#231f20;fill-opacity:1;fill-rule:nonzero;stroke:none"
         d="m 4447.36,2145.95 c -3.29,-8.19 -16.55,-20.45 -29.69,-40.83 -16.39,-20.42 -16.39,-48.99 -6.58,-69.39 9.87,-24.5 20.11,-49 20.11,-49 9.11,-25.8 6.14,-69.39 6.14,-69.39 h -9.83 c 0,40.81 -9.84,81.64 -36.11,97.96 -29.51,16.32 -49.19,0 -49.19,0 -19.68,-8.15 -32.77,-44.9 -22.93,-65.28 13.1,-20.43 26.22,-28.61 29.52,-28.61 0,0 -6.59,20.43 9.83,36.74 16.38,12.25 32.77,4.08 42.65,-8.13 9.81,-12.25 9.81,-32.68 9.81,-32.68 h -36.08 v -24.51 h 55.8 c 0,0 -3.3,-32.63 -32.82,-28.56 0,0 3.29,-24.51 32.82,-12.26 0,0 -3.13,-24.46 16.55,-40.81 19.66,16.35 16.55,40.81 16.55,40.81 29.51,-12.25 32.8,12.26 32.8,12.26 -29.51,-4.07 -32.8,28.56 -32.8,28.56 h 55.77 v 24.51 h -36.05 c 0,0 0,20.43 9.79,32.68 9.88,12.21 26.26,20.38 42.66,8.13 16.42,-16.31 9.83,-36.74 9.83,-36.74 3.28,0 16.42,8.18 29.51,28.61 9.84,20.38 -3.25,57.13 -22.92,65.28 0,0 -19.7,16.32 -49.2,0 -26.26,-16.32 -36.1,-57.15 -36.1,-97.96 h -9.84 c 0,0 -2.95,43.59 6.16,69.39 0,0 10.23,24.5 20.11,49 9.79,20.4 9.79,48.97 -6.59,69.39 -13.13,20.38 -26.38,32.64 -29.68,40.83 v 0" /><path
         id="path32"
         style="fill:none;stroke:#1f4fa2;stroke-width:7.5;stroke-linecap:butt;stroke-linejoin:miter;stroke-miterlimit:4;stroke-dasharray:none;stroke-opacity:1"
         d="m 4447.36,2145.95 c -3.29,-8.19 -16.55,-20.45 -29.69,-40.83 -16.39,-20.42 -16.39,-48.99 -6.58,-69.39 9.87,-24.5 20.11,-49 20.11,-49 9.11,-25.8 6.14,-69.39 6.14,-69.39 h -9.83 c 0,40.81 -9.84,81.64 -36.11,97.96 -29.51,16.32 -49.19,0 -49.19,0 -19.68,-8.15 -32.77,-44.9 -22.93,-65.28 13.1,-20.43 26.22,-28.61 29.52,-28.61 0,0 -6.59,20.43 9.83,36.74 16.38,12.25 32.77,4.08 42.65,-8.13 9.81,-12.25 9.81,-32.68 9.81,-32.68 h -36.08 v -24.51 h 55.8 c 0,0 -3.3,-32.63 -32.82,-28.56 0,0 3.29,-24.51 32.82,-12.26 0,0 -3.13,-24.46 16.55,-40.81 19.66,16.35 16.55,40.81 16.55,40.81 29.51,-12.25 32.8,12.26 32.8,12.26 -29.51,-4.07 -32.8,28.56 -32.8,28.56 h 55.77 v 24.51 h -36.05 c 0,0 0,20.43 9.79,32.68 9.88,12.21 26.26,20.38 42.66,8.13 16.42,-16.31 9.83,-36.74 9.83,-36.74 3.28,0 16.42,8.18 29.51,28.61 9.84,20.38 -3.25,57.13 -22.92,65.28 0,0 -19.7,16.32 -49.2,0 -26.26,-16.32 -36.1,-57.15 -36.1,-97.96 h -9.84 c 0,0 -2.95,43.59 6.16,69.39 0,0 10.23,24.5 20.11,49 9.79,20.4 9.79,48.97 -6.59,69.39 -13.13,20.38 -26.38,32.64 -29.68,40.83 z" /><path
         id="path34"
         style="fill:none;stroke:#231f20;stroke-width:0.31900001;stroke-linecap:butt;stroke-linejoin:miter;stroke-miterlimit:4;stroke-dasharray:none;stroke-opacity:1"
         d="m 4447.54,1815.05 0.07,-5.16" /><path
         id="path36"
         style="fill:none;stroke:#ffffff;stroke-width:0.31900001;stroke-linecap:butt;stroke-linejoin:miter;stroke-miterlimit:4;stroke-dasharray:none;stroke-opacity:1"
         d="m 4447.29,2147.73 0.05,-5.14" /><path
         id="path38"
         style="fill:none;stroke:#1f4fa2;stroke-width:0.31900001;stroke-linecap:butt;stroke-linejoin:miter;stroke-miterlimit:4;stroke-dasharray:none;stroke-opacity:1"
         d="m 4431.78,1853.21 -2.95,-4.21" /><path
         id="path40"
         style="fill:none;stroke:#1f4fa2;stroke-width:0.31900001;stroke-linecap:butt;stroke-linejoin:miter;stroke-miterlimit:4;stroke-dasharray:none;stroke-opacity:1"
         d="m 4431.78,1853.21 -2.95,-4.21" /><path
         id="path42"
         style="fill:none;stroke:#231f20;stroke-width:0.31900001;stroke-linecap:butt;stroke-linejoin:miter;stroke-miterlimit:4;stroke-dasharray:none;stroke-opacity:1"
         d="m 4431.78,1853.21 -2.95,-4.21" /><path
         id="path44"
         style="fill:none;stroke:#1f4fa2;stroke-width:0.31900001;stroke-linecap:butt;stroke-linejoin:miter;stroke-miterlimit:4;stroke-dasharray:none;stroke-opacity:1"
         d="m 4429.51,1920.18 -2.96,-4.21" /><path
         id="path46"
         style="fill:none;stroke:#1f4fa2;stroke-width:0.31900001;stroke-linecap:butt;stroke-linejoin:miter;stroke-miterlimit:4;stroke-dasharray:none;stroke-opacity:1"
         d="m 4459.39,1920.18 -2.97,-4.21" /><path
         id="path48"
         style="fill:none;stroke:#231f20;stroke-width:0.31900001;stroke-linecap:butt;stroke-linejoin:miter;stroke-miterlimit:4;stroke-dasharray:none;stroke-opacity:1"
         d="m 4456.42,1915.97 2.97,4.21" /><path
         id="path50"
         style="fill:none;stroke:#231f20;stroke-width:0.31900001;stroke-linecap:butt;stroke-linejoin:miter;stroke-miterlimit:4;stroke-dasharray:none;stroke-opacity:1"
         d="m 4426.55,1915.97 2.96,4.21" /><path
         id="path52"
         style="fill:none;stroke:#231f20;stroke-width:0.31900001;stroke-linecap:butt;stroke-linejoin:miter;stroke-miterlimit:4;stroke-dasharray:none;stroke-opacity:1"
         d="m 4437.68,1915.97 -2.47,4.52" /><path
         id="path54"
         style="fill:none;stroke:#231f20;stroke-width:0.31900001;stroke-linecap:butt;stroke-linejoin:miter;stroke-miterlimit:4;stroke-dasharray:none;stroke-opacity:1"
         d="m 4467.6,1915.97 -2.47,4.52" /><path
         id="path56"
         style="fill:none;stroke:#231f20;stroke-width:0.31900001;stroke-linecap:butt;stroke-linejoin:miter;stroke-miterlimit:4;stroke-dasharray:none;stroke-opacity:1"
         d="m 4462.97,1852.9 3.62,-3.67" /><path
         id="path58"
         style="fill:#FFFFFF;fill-opacity:1;fill-rule:nonzero;stroke:none"
         d="m 4168.34,1627.11 h 554.01 V 1295.1 h -554.01 v 332.01 0" /><path
         id="path60"
         style="fill:#231f20;fill-opacity:1;fill-rule:nonzero;stroke:none"
         d="m 4447.36,1630.54 c -3.29,-8.18 -16.55,-20.43 -29.69,-40.82 -16.39,-20.42 -16.39,-48.99 -6.58,-69.39 9.87,-24.51 20.11,-48.99 20.11,-48.99 9.11,-25.8 6.14,-69.39 6.14,-69.39 h -9.83 c 0,40.81 -9.84,81.64 -36.11,97.96 -29.51,16.32 -49.19,0 -49.19,0 -19.68,-8.16 -32.77,-44.9 -22.93,-65.29 13.1,-20.43 26.22,-28.61 29.52,-28.61 0,0 -6.59,20.42 9.83,36.75 16.38,12.25 32.77,4.07 42.65,-8.14 9.81,-12.25 9.81,-32.67 9.81,-32.67 h -36.08 v -24.51 h 55.8 c 0,0 -3.3,-32.64 -32.82,-28.56 0,0 3.29,-24.5 32.82,-12.26 0,0 -3.13,-24.47 16.55,-40.82 19.66,16.35 16.55,40.82 16.55,40.82 29.51,-12.24 32.8,12.26 32.8,12.26 -29.51,-4.08 -32.8,28.56 -32.8,28.56 h 55.77 v 24.51 h -36.05 c 0,0 0,20.42 9.79,32.67 9.88,12.21 26.26,20.39 42.66,8.14 16.42,-16.33 9.83,-36.75 9.83,-36.75 3.28,0 16.42,8.18 29.51,28.61 9.84,20.39 -3.25,57.13 -22.92,65.29 0,0 -19.7,16.32 -49.2,0 -26.26,-16.32 -36.1,-57.15 -36.1,-97.96 h -9.84 c 0,0 -2.95,43.59 6.16,69.39 0,0 10.23,24.48 20.11,48.99 9.79,20.4 9.79,48.97 -6.59,69.39 -13.13,20.39 -26.38,32.64 -29.68,40.82 v 0" /><path
         id="path62"
         style="fill:none;stroke:#231f20;stroke-width:7.5;stroke-linecap:butt;stroke-linejoin:miter;stroke-miterlimit:4;stroke-dasharray:none;stroke-opacity:1"
         d="m 4447.36,1630.54 c -3.29,-8.18 -16.55,-20.43 -29.69,-40.82 -16.39,-20.42 -16.39,-48.99 -6.58,-69.39 9.87,-24.51 20.11,-48.99 20.11,-48.99 9.11,-25.8 6.14,-69.39 6.14,-69.39 h -9.83 c 0,40.81 -9.84,81.64 -36.11,97.96 -29.51,16.32 -49.19,0 -49.19,0 -19.68,-8.16 -32.77,-44.9 -22.93,-65.29 13.1,-20.43 26.22,-28.61 29.52,-28.61 0,0 -6.59,20.42 9.83,36.75 16.38,12.25 32.77,4.07 42.65,-8.14 9.81,-12.25 9.81,-32.67 9.81,-32.67 h -36.08 v -24.51 h 55.8 c 0,0 -3.3,-32.64 -32.82,-28.56 0,0 3.29,-24.5 32.82,-12.26 0,0 -3.13,-24.47 16.55,-40.82 19.66,16.35 16.55,40.82 16.55,40.82 29.51,-12.24 32.8,12.26 32.8,12.26 -29.51,-4.08 -32.8,28.56 -32.8,28.56 h 55.77 v 24.51 h -36.05 c 0,0 0,20.42 9.79,32.67 9.88,12.21 26.26,20.39 42.66,8.14 16.42,-16.33 9.83,-36.75 9.83,-36.75 3.28,0 16.42,8.18 29.51,28.61 9.84,20.39 -3.25,57.13 -22.92,65.29 0,0 -19.7,16.32 -49.2,0 -26.26,-16.32 -36.1,-57.15 -36.1,-97.96 h -9.84 c 0,0 -2.95,43.59 6.16,69.39 0,0 10.23,24.48 20.11,48.99 9.79,20.4 9.79,48.97 -6.59,69.39 -13.13,20.39 -26.38,32.64 -29.68,40.82 z" /><path
         id="path64"
         style="fill:none;stroke:#ffffff;stroke-width:0.31900001;stroke-linecap:butt;stroke-linejoin:miter;stroke-miterlimit:4;stroke-dasharray:none;stroke-opacity:1"
         d="m 4447.54,1299.65 0.07,-5.16" /><path
         id="path66"
         style="fill:none;stroke:#ffffff;stroke-width:0.31900001;stroke-linecap:butt;stroke-linejoin:miter;stroke-miterlimit:4;stroke-dasharray:none;stroke-opacity:1"
         d="m 4447.29,1632.6 0.05,-5.14" /><path
         id="path68"
         style="fill:none;stroke:#1f4fa2;stroke-width:0.31900001;stroke-linecap:butt;stroke-linejoin:miter;stroke-miterlimit:4;stroke-dasharray:none;stroke-opacity:1"
         d="m 4431.78,1337.82 -2.95,-4.23" /><path
         id="path70"
         style="fill:none;stroke:#1f4fa2;stroke-width:0.31900001;stroke-linecap:butt;stroke-linejoin:miter;stroke-miterlimit:4;stroke-dasharray:none;stroke-opacity:1"
         d="m 4431.78,1337.82 -2.95,-4.23" /><path
         id="path72"
         style="fill:none;stroke:#231f20;stroke-width:0.31900001;stroke-linecap:butt;stroke-linejoin:miter;stroke-miterlimit:4;stroke-dasharray:none;stroke-opacity:1"
         d="m 4431.78,1337.82 -2.95,-4.23" /><path
         id="path74"
         style="fill:none;stroke:#1f4fa2;stroke-width:0.31900001;stroke-linecap:butt;stroke-linejoin:miter;stroke-miterlimit:4;stroke-dasharray:none;stroke-opacity:1"
         d="m 4429.51,1404.79 -2.96,-4.22" /><path
         id="path76"
         style="fill:none;stroke:#1f4fa2;stroke-width:0.31900001;stroke-linecap:butt;stroke-linejoin:miter;stroke-miterlimit:4;stroke-dasharray:none;stroke-opacity:1"
         d="m 4459.39,1404.79 -2.97,-4.22" /><path
         id="path78"
         style="fill:none;stroke:#231f20;stroke-width:0.31900001;stroke-linecap:butt;stroke-linejoin:miter;stroke-miterlimit:4;stroke-dasharray:none;stroke-opacity:1"
         d="m 4456.42,1400.57 2.97,4.22" /><path
         id="path80"
         style="fill:none;stroke:#231f20;stroke-width:0.31900001;stroke-linecap:butt;stroke-linejoin:miter;stroke-miterlimit:4;stroke-dasharray:none;stroke-opacity:1"
         d="m 4426.55,1400.57 2.96,4.22" /><path
         id="path82"
         style="fill:none;stroke:#231f20;stroke-width:0.31900001;stroke-linecap:butt;stroke-linejoin:miter;stroke-miterlimit:4;stroke-dasharray:none;stroke-opacity:1"
         d="m 4437.68,1400.57 -2.47,4.53" /><path
         id="path84"
         style="fill:none;stroke:#231f20;stroke-width:0.31900001;stroke-linecap:butt;stroke-linejoin:miter;stroke-miterlimit:4;stroke-dasharray:none;stroke-opacity:1"
         d="m 4467.6,1400.57 -2.47,4.53" /><path
         id="path86"
         style="fill:none;stroke:#231f20;stroke-width:0.31900001;stroke-linecap:butt;stroke-linejoin:miter;stroke-miterlimit:4;stroke-dasharray:none;stroke-opacity:1"
         d="m 4462.97,1337.5 3.62,-3.66" /><path
         id="path88"
         style="fill:#FFFFFF;fill-opacity:1;fill-rule:nonzero;stroke:none"
         d="m 4907.02,2142.52 h 554 V 1810.5 h -554 v 332.02 0" /><path
         id="path90"
         style="fill:#231f20;fill-opacity:1;fill-rule:nonzero;stroke:none"
         d="m 5186.04,2145.95 c -3.3,-8.19 -16.57,-20.45 -29.69,-40.83 -16.37,-20.42 -16.37,-48.99 -6.59,-69.39 9.87,-24.5 20.11,-49 20.11,-49 9.11,-25.8 6.16,-69.39 6.16,-69.39 h -9.82 c 0,40.81 -9.86,81.64 -36.13,97.96 -29.49,16.32 -49.18,0 -49.18,0 -19.67,-8.15 -32.77,-44.9 -22.94,-65.28 13.09,-20.43 26.24,-28.61 29.51,-28.61 0,0 -6.57,20.43 9.86,36.74 16.38,12.25 32.75,4.08 42.65,-8.13 9.78,-12.25 9.78,-32.68 9.78,-32.68 h -36.05 v -24.51 h 55.76 c 0,0 -3.26,-32.63 -32.8,-28.56 0,0 3.31,-24.51 32.8,-12.26 0,0 -3.11,-24.46 16.57,-40.81 19.68,16.35 16.55,40.81 16.55,40.81 29.51,-12.25 32.8,12.26 32.8,12.26 -29.51,-4.07 -32.8,28.56 -32.8,28.56 h 55.78 v 24.51 h -36.07 c 0,0 0,20.43 9.8,32.68 9.88,12.21 26.27,20.38 42.65,8.13 16.43,-16.31 9.83,-36.74 9.83,-36.74 3.31,0 16.42,8.18 29.53,28.61 9.83,20.38 -3.26,57.13 -22.93,65.28 0,0 -19.69,16.32 -49.2,0 -26.27,-16.32 -36.1,-57.15 -36.1,-97.96 h -9.84 c 0,0 -2.95,43.59 6.17,69.39 0,0 10.22,24.5 20.09,49 9.8,20.4 9.8,48.97 -6.59,69.39 -13.12,20.38 -26.39,32.64 -29.67,40.83 v 0" /><path
         id="path92"
         style="fill:none;stroke:#231f20;stroke-width:7.5;stroke-linecap:butt;stroke-linejoin:miter;stroke-miterlimit:4;stroke-dasharray:none;stroke-opacity:1"
         d="m 5186.04,2145.95 c -3.3,-8.19 -16.57,-20.45 -29.69,-40.83 -16.37,-20.42 -16.37,-48.99 -6.59,-69.39 9.87,-24.5 20.11,-49 20.11,-49 9.11,-25.8 6.16,-69.39 6.16,-69.39 h -9.82 c 0,40.81 -9.86,81.64 -36.13,97.96 -29.49,16.32 -49.18,0 -49.18,0 -19.67,-8.15 -32.77,-44.9 -22.94,-65.28 13.09,-20.43 26.24,-28.61 29.51,-28.61 0,0 -6.57,20.43 9.86,36.74 16.38,12.25 32.75,4.08 42.65,-8.13 9.78,-12.25 9.78,-32.68 9.78,-32.68 h -36.05 v -24.51 h 55.76 c 0,0 -3.26,-32.63 -32.8,-28.56 0,0 3.31,-24.51 32.8,-12.26 0,0 -3.11,-24.46 16.57,-40.81 19.68,16.35 16.55,40.81 16.55,40.81 29.51,-12.25 32.8,12.26 32.8,12.26 -29.51,-4.07 -32.8,28.56 -32.8,28.56 h 55.78 v 24.51 h -36.07 c 0,0 0,20.43 9.8,32.68 9.88,12.21 26.27,20.38 42.65,8.13 16.43,-16.31 9.83,-36.74 9.83,-36.74 3.31,0 16.42,8.18 29.53,28.61 9.83,20.38 -3.26,57.13 -22.93,65.28 0,0 -19.69,16.32 -49.2,0 -26.27,-16.32 -36.1,-57.15 -36.1,-97.96 h -9.84 c 0,0 -2.95,43.59 6.17,69.39 0,0 10.22,24.5 20.09,49 9.8,20.4 9.8,48.97 -6.59,69.39 -13.12,20.38 -26.39,32.64 -29.67,40.83 z" /><path
         id="path94"
         style="fill:none;stroke:#ffffff;stroke-width:0.31900001;stroke-linecap:butt;stroke-linejoin:miter;stroke-miterlimit:4;stroke-dasharray:none;stroke-opacity:1"
         d="m 5186.25,1815.05 0.05,-5.16" /><path
         id="path96"
         style="fill:none;stroke:#ffffff;stroke-width:0.31900001;stroke-linecap:butt;stroke-linejoin:miter;stroke-miterlimit:4;stroke-dasharray:none;stroke-opacity:1"
         d="m 5186.25,2147.2 0.05,-5.16" /><path
         id="path98"
         style="fill:none;stroke:#1f4fa2;stroke-width:0.31900001;stroke-linecap:butt;stroke-linejoin:miter;stroke-miterlimit:4;stroke-dasharray:none;stroke-opacity:1"
         d="m 5170.46,1853.21 -2.94,-4.21" /><path
         id="path100"
         style="fill:none;stroke:#1f4fa2;stroke-width:0.31900001;stroke-linecap:butt;stroke-linejoin:miter;stroke-miterlimit:4;stroke-dasharray:none;stroke-opacity:1"
         d="m 5170.46,1853.21 -2.94,-4.21" /><path
         id="path102"
         style="fill:none;stroke:#231f20;stroke-width:0.31900001;stroke-linecap:butt;stroke-linejoin:miter;stroke-miterlimit:4;stroke-dasharray:none;stroke-opacity:1"
         d="m 5170.46,1853.21 -2.94,-4.21" /><path
         id="path104"
         style="fill:none;stroke:#1f4fa2;stroke-width:0.31900001;stroke-linecap:butt;stroke-linejoin:miter;stroke-miterlimit:4;stroke-dasharray:none;stroke-opacity:1"
         d="m 5168.19,1920.18 -2.97,-4.21" /><path
         id="path106"
         style="fill:none;stroke:#1f4fa2;stroke-width:0.31900001;stroke-linecap:butt;stroke-linejoin:miter;stroke-miterlimit:4;stroke-dasharray:none;stroke-opacity:1"
         d="m 5198.08,1920.18 -2.96,-4.21" /><path
         id="path108"
         style="fill:none;stroke:#231f20;stroke-width:0.31900001;stroke-linecap:butt;stroke-linejoin:miter;stroke-miterlimit:4;stroke-dasharray:none;stroke-opacity:1"
         d="m 5195.12,1915.97 2.96,4.21" /><path
         id="path110"
         style="fill:none;stroke:#231f20;stroke-width:0.31900001;stroke-linecap:butt;stroke-linejoin:miter;stroke-miterlimit:4;stroke-dasharray:none;stroke-opacity:1"
         d="m 5165.22,1915.97 2.97,4.21" /><path
         id="path112"
         style="fill:none;stroke:#231f20;stroke-width:0.31900001;stroke-linecap:butt;stroke-linejoin:miter;stroke-miterlimit:4;stroke-dasharray:none;stroke-opacity:1"
         d="m 5176.37,1915.97 -2.48,4.52" /><path
         id="path114"
         style="fill:none;stroke:#231f20;stroke-width:0.31900001;stroke-linecap:butt;stroke-linejoin:miter;stroke-miterlimit:4;stroke-dasharray:none;stroke-opacity:1"
         d="m 5206.29,1915.97 -2.48,4.52" /><path
         id="path116"
         style="fill:none;stroke:#231f20;stroke-width:0.31900001;stroke-linecap:butt;stroke-linejoin:miter;stroke-miterlimit:4;stroke-dasharray:none;stroke-opacity:1"
         d="m 5201.67,1852.9 3.62,-3.67" /><path
         id="path118"
         style="fill:#FFFFFF;fill-opacity:1;fill-rule:nonzero;stroke:none"
         d="m 4907.02,1627.11 h 554 V 1295.1 h -554 v 332.01 0" /><path
         id="path120"
         style="fill:#231f20;fill-opacity:1;fill-rule:nonzero;stroke:none"
         d="m 5186.04,1630.54 c -3.3,-8.18 -16.57,-20.43 -29.69,-40.82 -16.37,-20.42 -16.37,-48.99 -6.59,-69.39 9.87,-24.51 20.11,-48.99 20.11,-48.99 9.11,-25.8 6.16,-69.39 6.16,-69.39 h -9.82 c 0,40.81 -9.86,81.64 -36.13,97.96 -29.49,16.32 -49.18,0 -49.18,0 -19.67,-8.16 -32.77,-44.9 -22.94,-65.29 13.09,-20.43 26.24,-28.61 29.51,-28.61 0,0 -6.57,20.42 9.86,36.75 16.38,12.25 32.75,4.07 42.65,-8.14 9.78,-12.25 9.78,-32.67 9.78,-32.67 h -36.05 v -24.51 h 55.76 c 0,0 -3.26,-32.64 -32.8,-28.56 0,0 3.31,-24.5 32.8,-12.26 0,0 -3.11,-24.47 16.57,-40.82 19.68,16.35 16.55,40.82 16.55,40.82 29.51,-12.24 32.8,12.26 32.8,12.26 -29.51,-4.08 -32.8,28.56 -32.8,28.56 h 55.78 v 24.51 h -36.07 c 0,0 0,20.42 9.8,32.67 9.88,12.21 26.27,20.39 42.65,8.14 16.43,-16.33 9.83,-36.75 9.83,-36.75 3.31,0 16.42,8.18 29.53,28.61 9.83,20.39 -3.26,57.13 -22.93,65.29 0,0 -19.69,16.32 -49.2,0 -26.27,-16.32 -36.1,-57.15 -36.1,-97.96 h -9.84 c 0,0 -2.95,43.59 6.17,69.39 0,0 10.22,24.48 20.09,48.99 9.8,20.4 9.8,48.97 -6.59,69.39 -13.12,20.39 -26.39,32.64 -29.67,40.82 v 0" /><path
         id="path122"
         style="fill:none;stroke:#231f20;stroke-width:7.5;stroke-linecap:butt;stroke-linejoin:miter;stroke-miterlimit:4;stroke-dasharray:none;stroke-opacity:1"
         d="m 5186.04,1630.54 c -3.3,-8.18 -16.57,-20.43 -29.69,-40.82 -16.37,-20.42 -16.37,-48.99 -6.59,-69.39 9.87,-24.51 20.11,-48.99 20.11,-48.99 9.11,-25.8 6.16,-69.39 6.16,-69.39 h -9.82 c 0,40.81 -9.86,81.64 -36.13,97.96 -29.49,16.32 -49.18,0 -49.18,0 -19.67,-8.16 -32.77,-44.9 -22.94,-65.29 13.09,-20.43 26.24,-28.61 29.51,-28.61 0,0 -6.57,20.42 9.86,36.75 16.38,12.25 32.75,4.07 42.65,-8.14 9.78,-12.25 9.78,-32.67 9.78,-32.67 h -36.05 v -24.51 h 55.76 c 0,0 -3.26,-32.64 -32.8,-28.56 0,0 3.31,-24.5 32.8,-12.26 0,0 -3.11,-24.47 16.57,-40.82 19.68,16.35 16.55,40.82 16.55,40.82 29.51,-12.24 32.8,12.26 32.8,12.26 -29.51,-4.08 -32.8,28.56 -32.8,28.56 h 55.78 v 24.51 h -36.07 c 0,0 0,20.42 9.8,32.67 9.88,12.21 26.27,20.39 42.65,8.14 16.43,-16.33 9.83,-36.75 9.83,-36.75 3.31,0 16.42,8.18 29.53,28.61 9.83,20.39 -3.26,57.13 -22.93,65.29 0,0 -19.69,16.32 -49.2,0 -26.27,-16.32 -36.1,-57.15 -36.1,-97.96 h -9.84 c 0,0 -2.95,43.59 6.17,69.39 0,0 10.22,24.48 20.09,48.99 9.8,20.4 9.8,48.97 -6.59,69.39 -13.12,20.39 -26.39,32.64 -29.67,40.82 z" /><path
         id="path124"
         style="fill:none;stroke:#ffffff;stroke-width:0.31900001;stroke-linecap:butt;stroke-linejoin:miter;stroke-miterlimit:4;stroke-dasharray:none;stroke-opacity:1"
         d="m 5186.25,1299.65 0.05,-5.16" /><path
         id="path126"
         style="fill:none;stroke:#ffffff;stroke-width:0.31900001;stroke-linecap:butt;stroke-linejoin:miter;stroke-miterlimit:4;stroke-dasharray:none;stroke-opacity:1"
         d="m 5186.25,1631.8 0.05,-5.14" /><path
         id="path128"
         style="fill:none;stroke:#1f4fa2;stroke-width:0.31900001;stroke-linecap:butt;stroke-linejoin:miter;stroke-miterlimit:4;stroke-dasharray:none;stroke-opacity:1"
         d="m 5170.46,1337.82 -2.94,-4.23" /><path
         id="path130"
         style="fill:none;stroke:#1f4fa2;stroke-width:0.31900001;stroke-linecap:butt;stroke-linejoin:miter;stroke-miterlimit:4;stroke-dasharray:none;stroke-opacity:1"
         d="m 5170.46,1337.82 -2.94,-4.23" /><path
         id="path132"
         style="fill:none;stroke:#231f20;stroke-width:0.31900001;stroke-linecap:butt;stroke-linejoin:miter;stroke-miterlimit:4;stroke-dasharray:none;stroke-opacity:1"
         d="m 5170.46,1337.82 -2.94,-4.23" /><path
         id="path134"
         style="fill:none;stroke:#1f4fa2;stroke-width:0.31900001;stroke-linecap:butt;stroke-linejoin:miter;stroke-miterlimit:4;stroke-dasharray:none;stroke-opacity:1"
         d="m 5168.19,1404.79 -2.97,-4.22" /><path
         id="path136"
         style="fill:none;stroke:#1f4fa2;stroke-width:0.31900001;stroke-linecap:butt;stroke-linejoin:miter;stroke-miterlimit:4;stroke-dasharray:none;stroke-opacity:1"
         d="m 5198.08,1404.79 -2.96,-4.22" /><path
         id="path138"
         style="fill:none;stroke:#231f20;stroke-width:0.31900001;stroke-linecap:butt;stroke-linejoin:miter;stroke-miterlimit:4;stroke-dasharray:none;stroke-opacity:1"
         d="m 5195.12,1400.57 2.96,4.22" /><path
         id="path140"
         style="fill:none;stroke:#231f20;stroke-width:0.31900001;stroke-linecap:butt;stroke-linejoin:miter;stroke-miterlimit:4;stroke-dasharray:none;stroke-opacity:1"
         d="m 5165.22,1400.57 2.97,4.22" /><path
         id="path142"
         style="fill:none;stroke:#231f20;stroke-width:0.31900001;stroke-linecap:butt;stroke-linejoin:miter;stroke-miterlimit:4;stroke-dasharray:none;stroke-opacity:1"
         d="m 5176.37,1400.57 -2.48,4.53" /><path
         id="path144"
         style="fill:none;stroke:#231f20;stroke-width:0.31900001;stroke-linecap:butt;stroke-linejoin:miter;stroke-miterlimit:4;stroke-dasharray:none;stroke-opacity:1"
         d="m 5206.29,1400.57 -2.48,4.53" /><path
         id="path146"
         style="fill:none;stroke:#231f20;stroke-width:0.31900001;stroke-linecap:butt;stroke-linejoin:miter;stroke-miterlimit:4;stroke-dasharray:none;stroke-opacity:1"
         d="m 5201.67,1337.5 3.62,-3.66" /><path
         id="path148"
         style="fill:#FFFFFF;fill-opacity:1;fill-rule:nonzero;stroke:none"
         d="M 169.199,709.859 V 673.5 H 73.4414 V 607.621 H 164.883 V 570.898 H 73.4414 V 460.02 H 23.7617 V 709.859 H 169.199" /><path
         id="path150"
         style="fill:#FFFFFF;fill-opacity:1;fill-rule:nonzero;stroke:none"
         d="M 254.156,644.711 V 460.02 h -46.801 v 184.691 z m 0.715,65.148 v -32.398 h -48.234 v 32.398 h 48.234" /><path
         id="path152"
         style="fill:#FFFFFF;fill-opacity:1;fill-rule:nonzero;stroke:none"
         d="M 354.234,709.859 V 460.02 h -46.796 v 249.839 h 46.796" /><path
         id="path154"
         style="fill:#FFFFFF;fill-opacity:1;fill-rule:nonzero;stroke:none"
         d="m 633.238,646.859 c 45.715,0 60.84,-40.679 60.84,-80.277 V 460.02 h -46.805 v 96.48 c 0,21.238 -3.957,50.77 -31.316,50.77 -31.324,0 -41.402,-32.77 -41.402,-58.688 V 460.02 h -46.801 v 96.48 c 0,21.238 -4.316,50.77 -31.68,50.77 -31.316,0 -41.402,-32.77 -41.402,-58.688 V 460.02 H 408.23 v 182.519 h 42.485 V 609.41 c 13.316,24.5 34.922,37.449 63,37.449 25.562,0 46.082,-15.468 55.441,-38.879 13.68,25.2 35.282,38.879 64.082,38.879" /><path
         id="path156"
         style="fill:#FFFFFF;fill-opacity:1;fill-rule:nonzero;stroke:none"
         d="m 884.145,515.461 c 0,-16.922 13.683,-27 29.882,-27 27.719,0 44.278,22.668 44.278,48.961 v 9.719 h -16.559 c -21.238,0 -57.601,-2.879 -57.601,-31.68 z M 1003.31,460.02 h -41.4 l -0.722,29.519 c -14.403,-21.238 -36,-34.199 -61.918,-34.199 -34.563,0 -61.204,21.969 -61.204,57.601 0,63.36 75.602,60.84 120.239,60.84 v 2.52 c 0,27.359 -19.438,39.25 -45,39.25 -18.36,0 -35.996,-6.141 -52.196,-14.77 l -0.722,33.481 c 20.519,8.277 42.125,12.968 64.082,12.968 56.879,0 78.841,-28.089 78.841,-83.171 V 460.02" /><path
         id="path158"
         style="fill:#FFFFFF;fill-opacity:1;fill-rule:nonzero;stroke:none"
         d="m 1227.23,460.02 h -47.17 v 95.761 c 0,24.469 -6.11,52.199 -36,52.199 -31.68,0 -42.83,-33.839 -42.83,-60.121 V 460.02 h -46.81 v 182.519 h 42.85 V 609.41 c 13.67,24.852 36.35,37.82 64.8,37.82 48.59,0 65.16,-38.531 65.16,-81.371 V 460.02" /><path
         id="path160"
         style="fill:#FFFFFF;fill-opacity:1;fill-rule:nonzero;stroke:none"
         d="m 1316.14,552.18 c 0,-27.731 11.16,-59.032 43.92,-59.032 32.76,0 45.36,30.59 45.36,59.032 0,29.519 -12.6,59.75 -46.44,59.75 -31.32,0 -42.84,-33.469 -42.84,-59.75 z m 136.44,157.679 V 460.02 h -42.12 v 36.722 c -14.4,-25.562 -36.36,-39.601 -65.88,-39.601 -52.56,0 -77.04,50.757 -77.04,97.199 0,46.441 23.76,92.89 75.96,92.89 26.28,0 47.52,-9.73 62.28,-32.05 v 94.679 h 46.8" /><path
         id="path162"
         style="fill:#FFFFFF;fill-opacity:1;fill-rule:nonzero;stroke:none"
         d="M 1771.89,709.859 V 671.352 H 1705.3 V 460.02 h -49.32 v 211.332 h -65.89 v 38.507 h 181.8" /><path
         id="path164"
         style="fill:#FFFFFF;fill-opacity:1;fill-rule:nonzero;stroke:none"
         d="m 1835.25,616.621 c -28.08,0 -41.4,-23.762 -44.28,-48.961 h 86.04 c -1.8,24.481 -13.68,48.961 -41.76,48.961 z M 1790.97,538.5 c 2.88,-33.121 28.08,-49.68 59.76,-49.68 18.72,0 37.08,6.121 53.64,14.762 v -36 c -19.8,-7.922 -40.68,-12.242 -61.92,-12.242 -61.56,0 -97.2,38.16 -97.2,99 0,54 35.64,92.89 90.36,92.89 69.12,0 83.88,-50.41 83.88,-108.73 h -128.52" /><path
         id="path166"
         style="fill:#FFFFFF;fill-opacity:1;fill-rule:nonzero;stroke:none"
         d="M 2002.29,709.859 V 460.02 h -46.8 v 249.839 h 46.8" /><path
         id="path168"
         style="fill:#FFFFFF;fill-opacity:1;fill-rule:nonzero;stroke:none"
         d="m 2133.69,616.621 c -28.08,0 -41.4,-23.762 -44.28,-48.961 h 86.04 c -1.8,24.481 -13.68,48.961 -41.76,48.961 z M 2089.41,538.5 c 2.88,-33.121 28.08,-49.68 59.76,-49.68 18.72,0 37.08,6.121 53.64,14.762 v -36 c -19.8,-7.922 -40.68,-12.242 -61.92,-12.242 -61.56,0 -97.2,38.16 -97.2,99 0,54 35.64,92.89 90.36,92.89 69.12,0 83.88,-50.41 83.88,-108.73 h -128.52" /><path
         id="path170"
         style="fill:#FFFFFF;fill-opacity:1;fill-rule:nonzero;stroke:none"
         d="m 2282.01,642.539 43.56,-140.398 44.64,140.398 h 46.8 L 2350.77,460.02 h -54 l -65.16,182.519 h 50.4" /><path
         id="path172"
         style="fill:#FFFFFF;fill-opacity:1;fill-rule:nonzero;stroke:none"
         d="M 2490.81,644.711 V 460.02 h -46.8 v 184.691 z m 0.72,65.148 v -32.398 h -48.24 v 32.398 h 48.24" /><path
         id="path174"
         style="fill:#FFFFFF;fill-opacity:1;fill-rule:nonzero;stroke:none"
         d="m 2657.13,602.23 c -14.4,7.559 -30.6,12.602 -47.16,12.602 -10.8,0 -26.28,-2.902 -26.28,-16.57 0,-29.883 84.96,-25.922 84.96,-83.512 0,-42.48 -41.4,-56.531 -77.4,-56.531 -19.08,0 -38.53,2.871 -56.52,9.363 l 2.52,36 c 16.56,-8.293 34.92,-12.953 53.64,-12.953 11.16,0 29.16,2.871 29.16,17.633 0,32.027 -83.17,30.957 -83.17,84.597 0,39.243 40.69,54.371 73.81,54.371 17.28,0 33.84,-5.41 50.04,-10.449 l -3.6,-34.551" /><path
         id="path176"
         style="fill:#FFFFFF;fill-opacity:1;fill-rule:nonzero;stroke:none"
         d="M 2755.04,644.711 V 460.02 h -46.8 v 184.691 z m 0.73,65.148 v -32.398 h -48.25 v 32.398 h 48.25" /><path
         id="path178"
         style="fill:#FFFFFF;fill-opacity:1;fill-rule:nonzero;stroke:none"
         d="m 2845.77,551.82 c 0,-29.16 14.39,-61.191 47.87,-61.191 33.85,0 47.89,31.68 47.89,61.191 0,29.532 -14.04,61.559 -47.89,61.559 -33.48,0 -47.87,-32.399 -47.87,-61.559 z m 145.07,-0.351 c 0,-60.129 -37.44,-96.129 -97.2,-96.129 -59.76,0 -96.84,36 -96.84,96.129 0,60.113 37.08,95.761 96.84,95.761 59.76,0 97.2,-35.648 97.2,-95.761" /><path
         id="path180"
         style="fill:#FFFFFF;fill-opacity:1;fill-rule:nonzero;stroke:none"
         d="m 3205.77,460.02 h -47.17 v 95.761 c 0,24.469 -6.11,52.199 -36,52.199 -31.68,0 -42.84,-33.839 -42.84,-60.121 V 460.02 h -46.8 v 182.519 h 42.85 V 609.41 c 13.67,24.852 36.35,37.82 64.79,37.82 48.6,0 65.17,-38.531 65.17,-81.371 V 460.02" /><path
         id="path182"
         style="fill:#FFFFFF;fill-opacity:1;fill-rule:nonzero;stroke:none"
         d="M 181.801,269.859 V 231.352 H 115.199 V 20.0195 H 65.8789 V 231.352 H 0 v 38.507 h 181.801" /><path
         id="path184"
         style="fill:#FFFFFF;fill-opacity:1;fill-rule:nonzero;stroke:none"
         d="m 200.156,75.4609 c 0,-16.9218 13.676,-27 29.879,-27 27.719,0 44.281,22.668 44.281,48.961 v 9.7191 h -16.562 c -21.238,0 -57.598,-2.879 -57.598,-31.6801 z m 119.16,-55.4414 h -41.402 l -0.719,29.5196 c -14.398,-21.2383 -36,-34.1993 -61.922,-34.1993 -34.558,0 -61.195,21.9688 -61.195,57.6016 0,63.3596 75.602,60.8396 120.238,60.8396 v 2.52 c 0,27.359 -19.437,39.25 -45,39.25 -18.359,0 -36,-6.141 -52.203,-14.77 l -0.718,33.481 c 20.519,8.277 42.121,12.968 64.078,12.968 56.886,0 78.843,-28.089 78.843,-83.171 V 20.0195" /><path
         id="path186"
         style="fill:#FFFFFF;fill-opacity:1;fill-rule:nonzero;stroke:none"
         d="m 405.715,202.539 33.473,-59.769 34.562,59.769 h 51.121 L 466.91,117.941 528.832,20.0195 H 473.75 L 435.953,90.2188 396.352,20.0195 h -52.204 l 64.082,96.8395 -57.601,85.68 h 55.086" /><path
         id="path188"
         style="fill:#FFFFFF;fill-opacity:1;fill-rule:nonzero;stroke:none"
         d="m 849.945,222.34 c -18.718,7.199 -37.8,14.402 -57.957,14.402 -55.441,0 -90.363,-38.523 -90.363,-93.242 0,-54.3594 38.879,-90 92.52,-90 19.8,0 38.16,8.6406 56.519,14.3984 l 4.32,-39.5976 c -21.238,-5.7617 -42.839,-13.3203 -65.16,-13.3203 -80.277,0 -138.961,44.6406 -138.961,128.5195 0,81 57.242,131.762 136.442,131.762 22.679,0 44.281,-7.922 65.883,-13.321 l -3.243,-39.601" /><path
         id="path190"
         style="fill:#FFFFFF;fill-opacity:1;fill-rule:nonzero;stroke:none"
         d="m 1006.54,163.66 c -6.12,2.16 -12.954,3.961 -19.438,3.961 -35.997,0 -47.524,-30.961 -47.524,-62.281 V 20.0195 H 892.781 V 204.711 h 42.121 V 168.34 c 10.078,23.762 26.996,40.68 54,40.68 5.762,0 11.878,-2.161 17.638,-3.239 V 163.66" /><path
         id="path192"
         style="fill:#FFFFFF;fill-opacity:1;fill-rule:nonzero;stroke:none"
         d="m 1112.38,176.621 c -28.08,0 -41.4,-23.762 -44.28,-48.961 h 86.04 c -1.8,24.481 -13.68,48.961 -41.76,48.961 z M 1068.1,98.5 c 2.88,-33.1211 28.08,-49.6797 59.76,-49.6797 18.72,0 37.08,6.1211 53.64,14.7617 v -36 c -19.8,-7.9218 -40.68,-12.2422 -61.92,-12.2422 -61.56,0 -97.2,38.1602 -97.2,99.0002 0,54 35.64,92.89 90.36,92.89 69.12,0 83.88,-50.41 83.88,-108.73 H 1068.1" /><path
         id="path194"
         style="fill:#FFFFFF;fill-opacity:1;fill-rule:nonzero;stroke:none"
         d="m 1271.14,112.18 c 0,-27.7308 11.15,-59.0316 43.91,-59.0316 32.77,0 45.37,30.5938 45.37,59.0316 0,29.519 -12.6,59.75 -46.45,59.75 -31.31,0 -42.83,-33.469 -42.83,-59.75 z m 136.44,157.679 V 20.0195 h -42.13 v 36.7227 c -14.4,-25.5625 -36.35,-39.6016 -65.87,-39.6016 -52.56,0 -77.05,50.7578 -77.05,97.1994 0,46.441 23.76,92.89 75.97,92.89 26.28,0 47.52,-9.73 62.28,-32.05 v 94.679 h 46.8" /><path
         id="path196"
         style="fill:#FFFFFF;fill-opacity:1;fill-rule:nonzero;stroke:none"
         d="M 1508.01,204.711 V 20.0195 h -46.79 V 204.711 Z m 0.73,65.148 v -32.398 h -48.25 v 32.398 h 48.25" /><path
         id="path198"
         style="fill:#FFFFFF;fill-opacity:1;fill-rule:nonzero;stroke:none"
         d="m 1624.65,204.711 h 43.92 v -34.57 h -43.92 V 90.2188 c 0,-19.0899 3.25,-40.3204 27.01,-40.3204 6.11,0 12.24,1.4414 17.99,3.25 l 0.73,-33.1289 c -10.44,-2.5195 -21.61,-3.9609 -32.41,-3.9609 -47.52,0 -60.47,27.7227 -60.47,71.2812 v 82.8012 h -36.01 v 34.57 h 38.16 v 48.59 l 45,15.121 v -63.711" /><path
         id="path200"
         style="fill:none;stroke:#FFFFFF;stroke-width:26;stroke-linecap:butt;stroke-linejoin:miter;stroke-miterlimit:4;stroke-dasharray:none;stroke-opacity:1"
         d="M 17.6797,925.488 H 5461.78" /><path
         id="path202"
         style="fill:#FFFFFF;fill-opacity:1;fill-rule:nonzero;stroke:none"
         d="m 4657.65,636.148 c -15.66,5.403 -31.33,11.34 -48.06,11.34 -41.31,0 -70.74,-29.156 -70.74,-70.726 0,-39.961 28.08,-67.5 68.04,-67.5 8.37,0 16.46,3.226 24.3,5.66 v 47.797 h -34.56 v 26.453 h 69.39 v -96.66 c -19.44,-6.473 -39.42,-12.153 -60.21,-12.153 -60.48,0 -105.03,33.223 -105.03,96.661 0,65.07 45.63,98.55 107.46,98.55 18.08,0 35.64,-6.211 53.19,-9.98 l -3.78,-29.442" /><path
         id="path204"
         style="fill:#FFFFFF;fill-opacity:1;fill-rule:nonzero;stroke:none"
         d="m 4765.38,601.59 c -21.06,0 -31.05,-17.82 -33.22,-36.719 h 64.53 c -1.34,18.359 -10.25,36.719 -31.31,36.719 z m -33.22,-58.578 c 2.17,-24.852 21.07,-37.274 44.83,-37.274 14.04,0 27.81,4.594 40.23,11.082 v -27.011 c -14.85,-5.938 -30.51,-9.18 -46.44,-9.18 -46.18,0 -72.9,28.633 -72.9,74.25 0,40.5 26.72,69.66 67.77,69.66 51.84,0 62.91,-37.797 62.91,-81.527 h -96.4" /><path
         id="path206"
         style="fill:#FFFFFF;fill-opacity:1;fill-rule:nonzero;stroke:none"
         d="m 4940.34,590.789 c -10.79,5.68 -22.95,9.449 -35.37,9.449 -8.11,0 -19.72,-2.148 -19.72,-12.418 0,-22.41 63.72,-19.441 63.72,-62.64 0,-31.86 -31.04,-42.391 -58.04,-42.391 -14.31,0 -28.89,2.16 -42.4,7.02 l 1.9,27.011 c 12.42,-6.211 26.19,-9.73 40.23,-9.73 8.37,0 21.86,2.172 21.86,13.23 0,24.039 -62.36,23.219 -62.36,63.45 0,29.429 30.51,40.769 55.34,40.769 12.97,0 25.38,-4.047 37.54,-7.828 l -2.7,-25.922" /><path
         id="path208"
         style="fill:#FFFFFF;fill-opacity:1;fill-rule:nonzero;stroke:none"
         d="m 5026.2,622.66 h 32.94 v -25.918 h -32.94 v -59.941 c 0,-14.321 2.43,-30.25 20.24,-30.25 4.59,0 9.19,1.078 13.51,2.437 l 0.54,-24.847 c -7.83,-1.891 -16.21,-2.969 -24.3,-2.969 -35.64,0 -45.36,20.777 -45.36,53.457 v 62.113 h -27.01 v 25.918 h 28.63 v 36.442 l 33.75,11.347 V 622.66" /><path
         id="path210"
         style="fill:#FFFFFF;fill-opacity:1;fill-rule:nonzero;stroke:none"
         d="M 5122.31,622.66 V 484.141 h -35.09 V 622.66 Z m 0.55,48.86 v -24.29 h -36.19 v 24.29 h 36.19" /><path
         id="path212"
         style="fill:#FFFFFF;fill-opacity:1;fill-rule:nonzero;stroke:none"
         d="m 5190.36,552.992 c 0,-21.871 10.79,-45.902 35.9,-45.902 25.39,0 35.91,23.762 35.91,45.902 0,22.137 -10.52,46.168 -35.91,46.168 -25.11,0 -35.9,-24.301 -35.9,-46.168 z m 108.81,-0.273 c 0,-45.09 -28.08,-72.09 -72.91,-72.09 -44.82,0 -72.62,27 -72.62,72.09 0,45.09 27.8,71.82 72.62,71.82 44.83,0 72.91,-26.73 72.91,-71.82" /><path
         id="path214"
         style="fill:#FFFFFF;fill-opacity:1;fill-rule:nonzero;stroke:none"
         d="m 5460.35,484.141 h -35.36 v 71.82 c 0,18.359 -4.59,39.16 -27.01,39.16 -23.76,0 -32.14,-25.391 -32.14,-45.101 v -65.879 h -35.08 v 136.898 h 32.12 v -24.848 c 10.26,18.641 27.27,28.348 48.6,28.348 36.44,0 48.87,-28.891 48.87,-61.008 v -79.39" /><path
         id="path216"
         style="fill:#FFFFFF;fill-opacity:1;fill-rule:nonzero;stroke:none"
         d="m 4394.82,373.121 c -30.72,14.07 -64,22.391 -97.92,22.391 -32,0 -74.88,-9.59 -74.88,-49.282 0,-71.679 197.12,-71.031 197.12,-206.718 C 4419.14,44.8086 4334.02,0 4248.9,0 c -39.04,0 -80,15.3594 -117.12,26.2422 l 8.32,76.1558 c 33.28,-16.6363 71.04,-33.9175 108.8,-33.9175 34.56,0 79.36,15.9883 79.36,57.6015 0,79.348 -193.28,76.156 -193.28,211.828 0,90.25 83.84,126.078 162.55,126.078 35.84,0 70.4,-12.148 104.97,-21.117 l -7.68,-69.75" /><path
         id="path218"
         style="fill:#FFFFFF;fill-opacity:1;fill-rule:nonzero;stroke:none"
         d="m 4492.83,163.801 c 0,-51.469 22,-113.5315 83.16,-113.5315 61.15,0 83.59,62.0625 83.59,113.5315 0,51.918 -22.44,113.078 -83.59,113.078 -61.16,0 -83.16,-61.609 -83.16,-113.078 z m 227.92,-0.879 c 0,-91.5118 -48.4,-158.83997 -144.76,-158.83997 -96.37,0 -144.32,67.32817 -144.32,158.83997 0,91.508 47.95,159.277 144.32,159.277 96.36,0 144.76,-68.199 144.76,-159.277" /><path
         id="path220"
         style="fill:#FFFFFF;fill-opacity:1;fill-rule:nonzero;stroke:none"
         d="m 4795.02,57.332 h 34.76 c 67.32,0 106.92,39.5782 106.92,106.91 0,69.52 -40.03,106.028 -108.68,106.028 h -33 z m 26.84,258.27 c 103.85,0 177.32,-38.27 177.32,-152.243 0,-115.2692 -78.32,-153.1207 -182.15,-153.1207 H 4734.3 V 315.602 h 87.56" /><path
         id="path222"
         style="fill:#FFFFFF;fill-opacity:1;fill-rule:nonzero;stroke:none"
         d="m 5206.66,315.602 v -44 h -126.28 v -79.204 h 119.67 V 147.52 H 5080.38 V 56.4492 h 130.68 V 10.2383 H 5020.1 V 315.602 h 186.56" /><path
         id="path224"
         style="fill:#FFFFFF;fill-opacity:1;fill-rule:nonzero;stroke:none"
         d="m 5459.58,257.52 c -22.89,8.8 -46.21,17.601 -70.84,17.601 -67.77,0 -110.44,-47.082 -110.44,-113.973 0,-66.4292 47.52,-109.9996 113.07,-109.9996 24.2,0 46.64,10.5704 69.08,17.6133 l 5.28,-48.4023 c -25.96,-7.0391 -52.36,-16.27737 -79.64,-16.27737 -98.12,0 -169.84,54.54687 -169.84,157.06597 0,99.012 69.97,161.051 166.76,161.051 27.72,0 54.12,-9.679 80.52,-16.277 l -3.95,-48.402" /></g></g></svg>