<svg version="1.1" xmlns="http://www.w3.org/2000/svg" xmlns:xlink="http://www.w3.org/1999/xlink" x="0px" y="0px" width="90.99px" height="96.29px" viewBox="0 0 90.99 96.29" xml:space="preserve" class="partials-partners-logo"><g><g><path fill="currentColor" style="fill:white" d="M39.61,47.75c-0.82-1.1-1.87-1.99-3.15-2.69c-1.28-0.7-2.78-1.04-4.49-1.04c-2.49,0-4.71,0.51-6.65,1.54 c-1.94,1.03-3.6,2.36-4.96,4.01c-1.36,1.65-2.41,3.55-3.15,5.71c-0.74,2.16-1.11,4.34-1.11,6.53c0,0.72,0.04,1.41,0.11,2.07h23.74 c0.36-0.72,0.67-1.47,0.94-2.24c0.74-2.08,1.11-4.08,1.11-5.98c0-1.39-0.19-2.78-0.58-4.17C41.02,50.1,40.42,48.85,39.61,47.75z M12.61,0v31.4c3.63-1.68,7.82-2.53,12.59-2.53c5.37,0,9.84,0.99,13.41,2.96c3.58,1.98,6.14,4.5,7.7,7.57h0.23L53.9,5.09h20.65 L61.53,63.88h14.96V0H12.61z"></path></g></g><g><path fill="currentColor" style="fill:white" d="M6.86,82.25H4.88l0.18-0.84c-0.38,0.36-0.75,0.62-1.12,0.78c-0.37,0.16-0.78,0.24-1.24,0.24c-0.8,0-1.45-0.27-1.95-0.82 C0.25,81.06,0,80.26,0,79.19c0-1.24,0.35-2.36,1.05-3.36c0.7-1,1.62-1.5,2.78-1.5c1.04,0,1.82,0.41,2.34,1.24l0.84-4h2.09 L6.86,82.25z M2.03,79.1c0,0.55,0.14,0.99,0.42,1.3c0.28,0.31,0.62,0.47,1.03,0.47c0.38,0,0.73-0.13,1.06-0.39 c0.33-0.26,0.59-0.66,0.79-1.19c0.2-0.53,0.3-1.05,0.3-1.54c0-0.56-0.15-1.01-0.45-1.36c-0.3-0.34-0.65-0.52-1.04-0.52 c-0.61,0-1.11,0.34-1.51,1.02C2.23,77.57,2.03,78.31,2.03,79.1z"></path><path fill="currentColor" style="fill:white" d="M8.78,79.04c0-1.43,0.4-2.58,1.21-3.43c0.81-0.85,1.87-1.28,3.19-1.28c1.14,0,2.03,0.32,2.67,0.94 c0.64,0.63,0.96,1.48,0.96,2.54c0,1.25-0.4,2.34-1.2,3.25c-0.8,0.91-1.88,1.37-3.22,1.37c-0.73,0-1.38-0.15-1.94-0.44 c-0.56-0.29-0.98-0.7-1.26-1.24C8.92,80.22,8.78,79.65,8.78,79.04z M14.74,77.54c0-0.5-0.14-0.89-0.43-1.19 c-0.29-0.3-0.66-0.45-1.12-0.45c-0.45,0-0.85,0.14-1.2,0.42c-0.35,0.28-0.62,0.69-0.82,1.22c-0.19,0.53-0.29,1.02-0.29,1.47 c0,0.55,0.15,0.99,0.45,1.32c0.3,0.33,0.68,0.49,1.14,0.49c0.57,0,1.05-0.25,1.44-0.74C14.46,79.38,14.74,78.54,14.74,77.54z"></path><path fill="currentColor" style="fill:white" d="M22.48,79.33l2.03,0.33c-0.34,0.9-0.83,1.59-1.49,2.06c-0.66,0.47-1.42,0.71-2.28,0.71c-0.99,0-1.77-0.29-2.35-0.88 c-0.58-0.59-0.87-1.4-0.87-2.43c0-0.84,0.17-1.63,0.52-2.38c0.35-0.75,0.88-1.34,1.58-1.77c0.7-0.43,1.48-0.65,2.32-0.65 c0.91,0,1.64,0.24,2.19,0.71c0.54,0.48,0.85,1.1,0.92,1.88l-1.99,0.21c-0.05-0.43-0.18-0.75-0.4-0.95c-0.22-0.2-0.5-0.31-0.85-0.31 c-0.4,0-0.78,0.15-1.13,0.45c-0.35,0.3-0.62,0.75-0.81,1.35c-0.19,0.6-0.28,1.16-0.28,1.69c0,0.46,0.11,0.81,0.34,1.06 c0.22,0.25,0.5,0.37,0.84,0.37c0.34,0,0.66-0.12,0.97-0.37C22.06,80.18,22.3,79.82,22.48,79.33z"></path><path fill="currentColor" style="fill:white" d="M26.78,74.51h2.09l-0.95,4.58c-0.12,0.55-0.18,0.89-0.18,1.03c0,0.22,0.08,0.42,0.25,0.58c0.17,0.16,0.38,0.24,0.63,0.24 c0.18,0,0.37-0.04,0.55-0.11c0.18-0.07,0.36-0.18,0.55-0.32c0.19-0.14,0.36-0.31,0.51-0.49c0.15-0.18,0.29-0.43,0.42-0.73 c0.09-0.22,0.19-0.59,0.3-1.09l0.77-3.69h2.09l-1.62,7.74h-1.95l0.22-1.05c-0.85,0.82-1.79,1.23-2.79,1.23 c-0.64,0-1.14-0.18-1.5-0.55c-0.36-0.36-0.55-0.85-0.55-1.46c0-0.27,0.08-0.8,0.25-1.6L26.78,74.51z"></path><path fill="currentColor" style="fill:white" d="M35.49,74.51h1.97l-0.2,0.94c0.77-0.75,1.57-1.12,2.42-1.12c0.58,0,1.03,0.12,1.35,0.37c0.32,0.24,0.52,0.58,0.6,1 c0.27-0.39,0.65-0.71,1.15-0.98c0.5-0.26,1.02-0.39,1.56-0.39c0.62,0,1.1,0.17,1.44,0.5c0.34,0.33,0.52,0.77,0.52,1.31 c0,0.27-0.07,0.73-0.21,1.38l-0.99,4.73h-2.09L44,77.52c0.12-0.59,0.18-0.93,0.18-1.01c0-0.21-0.06-0.38-0.19-0.51 c-0.13-0.12-0.32-0.19-0.58-0.19c-0.52,0-0.98,0.27-1.39,0.82c-0.3,0.39-0.55,1.09-0.76,2.09l-0.74,3.51h-2.09l0.98-4.68 c0.11-0.54,0.17-0.89,0.17-1.05c0-0.2-0.07-0.37-0.21-0.5c-0.14-0.13-0.33-0.2-0.57-0.2c-0.23,0-0.46,0.07-0.71,0.2 c-0.24,0.14-0.46,0.32-0.64,0.56c-0.18,0.24-0.34,0.54-0.47,0.92c-0.06,0.17-0.15,0.57-0.28,1.19l-0.74,3.56h-2.09L35.49,74.51z"></path><path fill="currentColor" style="fill:white" d="M54.38,79.03h-5.25c0,0.08-0.01,0.15-0.01,0.19c0,0.51,0.15,0.93,0.44,1.25c0.29,0.32,0.65,0.47,1.08,0.47 c0.69,0,1.24-0.36,1.62-1.08l1.87,0.31c-0.37,0.75-0.85,1.32-1.46,1.69c-0.61,0.38-1.29,0.57-2.05,0.57 c-1.04,0-1.88-0.33-2.54-0.99c-0.65-0.66-0.98-1.53-0.98-2.61c0-1.06,0.29-2,0.88-2.83c0.8-1.12,1.95-1.68,3.43-1.68 c0.95,0,1.7,0.29,2.26,0.88c0.56,0.58,0.84,1.41,0.84,2.46C54.53,78.17,54.48,78.62,54.38,79.03z M52.62,77.75 c0-0.09,0.01-0.16,0.01-0.21c0-0.57-0.13-1-0.39-1.29c-0.26-0.29-0.6-0.43-1.04-0.43c-0.43,0-0.82,0.16-1.16,0.49 c-0.34,0.33-0.57,0.81-0.7,1.44H52.62z"></path><path fill="currentColor" style="fill:white" d="M56.43,74.51h1.98l-0.2,1.01c0.5-0.43,0.96-0.73,1.39-0.92c0.43-0.18,0.88-0.27,1.36-0.27c0.63,0,1.14,0.18,1.5,0.55 c0.37,0.36,0.55,0.85,0.55,1.45c0,0.27-0.08,0.79-0.24,1.54l-0.91,4.38h-2.09l0.92-4.39c0.14-0.66,0.21-1.05,0.21-1.17 c0-0.27-0.08-0.48-0.24-0.63c-0.16-0.15-0.38-0.23-0.66-0.23c-0.31,0-0.65,0.13-1.02,0.39c-0.38,0.26-0.67,0.6-0.88,1.02 c-0.15,0.3-0.33,0.92-0.52,1.84l-0.66,3.18h-2.09L56.43,74.51z"></path><path fill="currentColor" style="fill:white" d="M64.07,76.06l0.32-1.55h1.02l0.25-1.24l2.4-1.44l-0.56,2.68h1.28l-0.32,1.55h-1.28L66.5,79.3 c-0.12,0.59-0.18,0.92-0.18,1.01c0,0.16,0.05,0.29,0.15,0.38c0.1,0.09,0.29,0.13,0.55,0.13c0.09,0,0.32-0.02,0.69-0.05l-0.33,1.55 c-0.36,0.07-0.73,0.11-1.11,0.11c-0.74,0-1.28-0.14-1.61-0.43c-0.33-0.28-0.5-0.68-0.5-1.18c0-0.24,0.09-0.79,0.27-1.65l0.65-3.11 H64.07z"></path><path fill="currentColor" style="fill:white" d="M71.11,76.7l-2.04-0.17c0.23-0.69,0.64-1.23,1.22-1.62c0.58-0.39,1.35-0.58,2.31-0.58c1,0,1.73,0.2,2.21,0.6 c0.47,0.4,0.71,0.89,0.71,1.47c0,0.23-0.02,0.48-0.06,0.74c-0.04,0.26-0.19,0.95-0.43,2.07c-0.2,0.92-0.3,1.57-0.3,1.94 c0,0.33,0.06,0.7,0.17,1.1h-2.03c-0.08-0.28-0.13-0.57-0.15-0.87c-0.31,0.34-0.66,0.6-1.06,0.78c-0.4,0.18-0.8,0.27-1.2,0.27 c-0.64,0-1.17-0.21-1.59-0.63s-0.63-0.96-0.63-1.62c0-0.74,0.23-1.33,0.69-1.77c0.46-0.44,1.28-0.71,2.46-0.8 c1-0.08,1.66-0.18,2-0.3c0.09-0.29,0.13-0.53,0.13-0.7c0-0.22-0.09-0.41-0.27-0.56c-0.18-0.15-0.45-0.23-0.8-0.23 c-0.38,0-0.67,0.08-0.88,0.23C71.33,76.2,71.19,76.42,71.11,76.7z M73.1,78.64c-0.12,0.03-0.29,0.07-0.5,0.09 c-1.05,0.13-1.73,0.31-2.05,0.55C70.31,79.46,70.2,79.7,70.2,80c0,0.24,0.09,0.45,0.26,0.62c0.17,0.17,0.4,0.25,0.69,0.25 c0.32,0,0.61-0.08,0.89-0.23c0.28-0.15,0.49-0.35,0.63-0.59c0.14-0.24,0.26-0.62,0.37-1.13L73.1,78.64z"></path><path fill="currentColor" style="fill:white" d="M77.81,74.51h1.95l-0.31,1.5c0.73-1.12,1.52-1.68,2.37-1.68c0.3,0,0.62,0.08,0.97,0.23l-0.8,1.71 c-0.19-0.07-0.39-0.1-0.61-0.1c-0.36,0-0.72,0.14-1.1,0.41c-0.37,0.27-0.66,0.63-0.87,1.09c-0.21,0.46-0.42,1.17-0.62,2.16 l-0.51,2.43h-2.09L77.81,74.51z"></path><path fill="currentColor" style="fill:white" d="M82.97,74.51h2.08l0.53,3.86c0.13,0.99,0.21,1.69,0.22,2.08c0.27-0.79,0.65-1.63,1.12-2.51l1.85-3.43h2.22l-4.78,8.5 c-0.39,0.7-0.7,1.2-0.93,1.48c-0.22,0.28-0.5,0.5-0.82,0.66c-0.32,0.16-0.7,0.24-1.15,0.24c-0.44,0-0.94-0.08-1.49-0.23l0.18-1.56 c0.25,0.07,0.5,0.11,0.74,0.11c0.64,0,1.17-0.49,1.58-1.46L82.97,74.51z"></path><path fill="currentColor" style="fill:white" d="M23.12,93.19l2.03,0.33c-0.34,0.9-0.83,1.59-1.49,2.06c-0.66,0.47-1.42,0.71-2.28,0.71c-0.99,0-1.77-0.29-2.35-0.88 c-0.58-0.59-0.87-1.4-0.87-2.43c0-0.84,0.17-1.63,0.52-2.38c0.35-0.75,0.88-1.34,1.58-1.77c0.7-0.43,1.48-0.65,2.32-0.65 c0.91,0,1.64,0.24,2.19,0.71c0.54,0.48,0.85,1.1,0.92,1.88l-1.99,0.21c-0.05-0.43-0.18-0.75-0.4-0.95c-0.22-0.2-0.5-0.31-0.85-0.31 c-0.4,0-0.78,0.15-1.13,0.45c-0.35,0.3-0.62,0.75-0.81,1.35c-0.19,0.6-0.28,1.16-0.28,1.69c0,0.46,0.11,0.81,0.34,1.06 c0.22,0.25,0.5,0.37,0.84,0.37c0.34,0,0.66-0.12,0.97-0.37C22.7,94.04,22.94,93.68,23.12,93.19z"></path><path fill="currentColor" style="fill:white" d="M27.99,96.11H25.9l2.24-10.68h2.09l-0.8,3.8c0.47-0.37,0.91-0.64,1.32-0.8c0.41-0.16,0.85-0.24,1.31-0.24 c0.63,0,1.12,0.18,1.49,0.54c0.36,0.36,0.55,0.83,0.55,1.41c0,0.31-0.07,0.79-0.2,1.44l-0.95,4.53h-2.09l0.97-4.61 c0.1-0.5,0.15-0.82,0.15-0.96c0-0.26-0.08-0.46-0.24-0.62c-0.16-0.16-0.38-0.23-0.66-0.23c-0.35,0-0.68,0.12-1.01,0.36 c-0.42,0.32-0.74,0.71-0.95,1.18c-0.12,0.26-0.28,0.86-0.48,1.81L27.99,96.11z"></path><path fill="currentColor" style="fill:white" d="M37.64,90.56l-2.04-0.17c0.23-0.69,0.64-1.23,1.22-1.62c0.58-0.39,1.35-0.58,2.31-0.58c1,0,1.73,0.2,2.21,0.6 c0.48,0.4,0.71,0.89,0.71,1.47c0,0.23-0.02,0.48-0.06,0.74c-0.04,0.26-0.19,0.95-0.43,2.07c-0.2,0.92-0.31,1.57-0.31,1.94 c0,0.33,0.06,0.7,0.17,1.1h-2.03c-0.08-0.28-0.13-0.57-0.15-0.87c-0.31,0.34-0.66,0.6-1.06,0.78c-0.4,0.18-0.8,0.27-1.2,0.27 c-0.64,0-1.17-0.21-1.59-0.63c-0.42-0.42-0.63-0.96-0.63-1.62c0-0.74,0.23-1.33,0.69-1.77c0.46-0.44,1.28-0.71,2.46-0.8 c1-0.08,1.66-0.18,2-0.3c0.09-0.29,0.13-0.53,0.13-0.7c0-0.22-0.09-0.41-0.27-0.56c-0.18-0.15-0.45-0.23-0.8-0.23 c-0.37,0-0.67,0.08-0.89,0.23C37.86,90.06,37.72,90.28,37.64,90.56z M39.63,92.5c-0.13,0.03-0.29,0.07-0.5,0.09 c-1.05,0.13-1.73,0.31-2.06,0.55c-0.23,0.17-0.34,0.41-0.34,0.71c0,0.24,0.09,0.45,0.26,0.62c0.17,0.17,0.41,0.25,0.69,0.25 c0.32,0,0.61-0.08,0.89-0.23c0.28-0.15,0.49-0.35,0.63-0.59c0.14-0.24,0.26-0.62,0.37-1.13L39.63,92.5z"></path><path fill="currentColor" style="fill:white" d="M44.34,88.37h1.98l-0.2,1.01c0.5-0.43,0.96-0.73,1.39-0.92c0.43-0.18,0.88-0.27,1.36-0.27c0.63,0,1.14,0.18,1.5,0.55 c0.37,0.36,0.55,0.85,0.55,1.45c0,0.27-0.08,0.79-0.24,1.54l-0.91,4.38h-2.09l0.92-4.39c0.14-0.66,0.21-1.05,0.21-1.17 c0-0.27-0.08-0.48-0.24-0.63c-0.16-0.15-0.38-0.23-0.66-0.23c-0.31,0-0.65,0.13-1.02,0.39c-0.38,0.26-0.67,0.6-0.88,1.02 c-0.16,0.3-0.33,0.92-0.53,1.84l-0.66,3.18h-2.09L44.34,88.37z"></path><path fill="currentColor" style="fill:white" d="M53.15,88.37h1.98l-0.2,1.01c0.5-0.43,0.96-0.73,1.39-0.92c0.43-0.18,0.88-0.27,1.36-0.27c0.63,0,1.14,0.18,1.5,0.55 c0.37,0.36,0.55,0.85,0.55,1.45c0,0.27-0.08,0.79-0.24,1.54l-0.91,4.38h-2.09l0.92-4.39c0.14-0.66,0.21-1.05,0.21-1.17 c0-0.27-0.08-0.48-0.24-0.63c-0.16-0.15-0.38-0.23-0.66-0.23c-0.31,0-0.65,0.13-1.02,0.39c-0.38,0.26-0.67,0.6-0.88,1.02 c-0.15,0.3-0.33,0.92-0.52,1.84l-0.66,3.18h-2.09L53.15,88.37z"></path><path fill="currentColor" style="fill:white" d="M67.86,92.89h-5.25c-0.01,0.08-0.01,0.15-0.01,0.19c0,0.51,0.15,0.93,0.44,1.25c0.29,0.32,0.65,0.47,1.07,0.47 c0.7,0,1.24-0.36,1.62-1.08l1.87,0.31c-0.36,0.75-0.85,1.32-1.46,1.69c-0.61,0.38-1.29,0.57-2.05,0.57c-1.04,0-1.88-0.33-2.54-0.99 c-0.65-0.66-0.98-1.53-0.98-2.61c0-1.06,0.29-2,0.88-2.83c0.8-1.12,1.95-1.68,3.43-1.68c0.95,0,1.7,0.29,2.26,0.88 c0.56,0.58,0.84,1.41,0.84,2.46C68.01,92.03,67.96,92.48,67.86,92.89z M66.1,91.61c0.01-0.09,0.01-0.16,0.01-0.21 c0-0.57-0.13-1-0.39-1.29c-0.26-0.29-0.6-0.43-1.04-0.43c-0.43,0-0.82,0.16-1.16,0.49c-0.34,0.33-0.57,0.81-0.7,1.44H66.1z"></path><path fill="currentColor" style="fill:white" d="M68.31,96.11l2.24-10.68h2.08l-2.23,10.68H68.31z"></path></g></svg>