<?xml version="1.0" encoding="UTF-8" standalone="no"?>
<svg
   xmlns:dc="http://purl.org/dc/elements/1.1/"
   xmlns:cc="http://creativecommons.org/ns#"
   xmlns:rdf="http://www.w3.org/1999/02/22-rdf-syntax-ns#"
   xmlns:svg="http://www.w3.org/2000/svg"
   xmlns="http://www.w3.org/2000/svg"
   viewBox="0 0 504 198.12"
   height="198.12"
   width="504"
   xml:space="preserve"
   id="svg2"
   version="1.1"><metadata
     id="metadata8"><rdf:RDF><cc:Work
         rdf:about=""><dc:format>image/svg+xml</dc:format><dc:type
           rdf:resource="http://purl.org/dc/dcmitype/StillImage" /></cc:Work></rdf:RDF></metadata><defs
     id="defs6" /><g
     transform="matrix(1.3333333,0,0,-1.3333333,0,198.12)"
     id="g10"><g
       transform="scale(0.1)"
       id="g12"><path
         id="path14"
         style="fill:#ffffff;fill-opacity:1;fill-rule:nonzero;stroke:none"
         d="m 1915.35,846.063 c 56.58,0 77.62,-20.735 77.62,-76.594 v -83.887 c 0,-55.512 -21.76,-77.141 -77.62,-77.141 0,0 -15.42,0 -17.49,0 0,2.286 0,235.356 0,237.622 2.07,0 17.49,0 17.49,0 z m -110.39,83.738 h -3.5 V 524.75 h 119.92 c 51.46,0 88.77,3.555 115.65,21.285 34,22.133 53.47,66.059 53.47,120.496 v 122 c 0,54.649 -18.98,97.461 -53.41,120.508 -28.96,19.219 -67.81,20.762 -115.71,20.762 h -116.42" /><path
         id="path16"
         style="fill:#ffffff;fill-opacity:1;fill-rule:nonzero;stroke:none"
         d="m 2250.99,677.438 v 100.207 c 0,54.773 4.01,78.777 42.84,78.777 38.81,0 42.84,-24.004 42.84,-78.777 V 677.438 c 0,-54.79 -4.03,-78.782 -42.84,-78.782 -38.83,0 -42.84,23.992 -42.84,78.782 z m -60.65,224.621 -0.03,-0.012 c -34.28,-34.969 -36.87,-77.988 -36.87,-139.656 v -70.266 c 0,-61.625 2.59,-104.68 36.87,-139.652 24.65,-24.883 60.45,-38.094 103.52,-38.094 43.43,0 79.38,13.211 104.05,38.094 34.32,34.972 36.89,78.027 36.89,139.652 v 70.266 c 0,61.648 -2.57,104.675 -36.89,139.656 -24.67,24.914 -60.62,38.086 -104.05,38.086 -43.04,0 -78.82,-13.172 -103.49,-38.074" /><path
         id="path18"
         style="fill:#ffffff;fill-opacity:1;fill-rule:nonzero;stroke:none"
         d="m 2532.55,902.059 -0.01,-0.012 c -34.28,-34.981 -36.88,-77.988 -36.88,-139.656 v -70.266 c 0,-61.625 2.6,-104.68 36.88,-139.652 24.65,-24.883 60.48,-38.094 103.51,-38.094 83.04,0 138.76,49.781 138.76,123.836 v 30.14 h -95.9 v -9.425 c 0,-43.399 -12.03,-60.274 -42.86,-60.274 -38.8,0 -42.84,23.992 -42.84,78.782 v 100.207 c 0,54.636 1.74,78.777 42.84,78.777 29.39,0 41.8,-15.906 42.86,-54.91 l 0.09,-3.352 h 95.81 v 27.403 c 0,65.332 -59.66,114.57 -138.76,114.57 -43.02,0 -78.79,-13.172 -103.5,-38.074" /><path
         id="path20"
         style="fill:#ffffff;fill-opacity:1;fill-rule:nonzero;stroke:none"
         d="m 2823.25,821.207 c 0,-38.008 15.14,-69.824 43.82,-92.031 20.76,-16.043 47.19,-26.524 77.72,-38.641 0.02,-0.012 23.01,-9.23 23.01,-9.23 29.02,-11.992 42.53,-27.024 42.53,-47.446 0,-22.644 -19.43,-38.496 -47.27,-38.496 -30.14,0 -52.01,15.481 -75.35,53.371 l -2,3.153 -75.29,-52.469 1.74,-2.773 c 34.42,-54.602 84.49,-82.266 148.7,-82.266 85.24,0 142.58,50.625 142.58,126.016 0,38.898 -15.61,72.543 -43.82,94.75 -18.68,14.687 -43.75,24.765 -72.76,36.433 l -29.04,11.953 c -32.55,14.16 -46.45,27.852 -46.45,45.852 0,19.754 16.57,33.035 41.17,33.035 26.29,0 49.15,-14.141 70,-43.223 l 2.04,-2.812 69.59,49.082 -1.76,2.754 c -29.56,47.715 -74.96,71.914 -134.85,71.914 -81.61,0 -134.31,-46.668 -134.31,-118.926" /><path
         id="path22"
         style="fill:#ffffff;fill-opacity:1;fill-rule:nonzero;stroke:none"
         d="M 678.688,1039.93 H 784.469 V 869.352 c 39.597,57.812 78.386,69.199 125.586,69.199 29.675,0 54.011,-11.426 69.246,-32.715 16.75,-22.852 17.512,-47.938 17.512,-78.387 0,-2.297 0,-5.324 0,-7.609 V 524.555 H 891.031 v 252.648 c 0,45.684 -4.59,63.176 -35.761,63.176 -19.817,0 -43.379,-12.93 -70.801,-40.313 V 524.555 H 678.688 v 515.375" /><path
         id="path24"
         style="fill:#ffffff;fill-opacity:1;fill-rule:nonzero;stroke:none"
         d="m 1711.59,608.266 c 4.58,0 9.12,0 11.21,0 v -83.457 c -12.73,-1.524 -27.92,-1.524 -40.87,-1.524 -104.26,0 -138.53,46.844 -138.53,141.379 v 181.399 h -59.34 v 83.367 h 59.34 v 110.5 h 105.78 v -110.5 h 73.85 v -83.367 h -73.85 V 700.152 c 0,-66.652 -0.53,-91.886 62.41,-91.886" /><path
         id="path26"
         style="fill:#ffffff;fill-opacity:1;fill-rule:nonzero;stroke:none"
         d="m 1376.7,763.629 c 0,53.086 -41.11,66.945 -127.11,66.945 -85.97,0 -127.09,-13.859 -127.09,-66.945 0,-52.578 39.6,-64.813 124.6,-65.047 l 79.91,-62.523 -0.21,68.82 h -0.07 c 33.79,8.059 49.97,25.176 49.97,58.75 z m -8.27,-157.199 h 0.14 l 0.12,-81.485 h -26.27 l -87.47,68.809 h -39.59 c -119.48,0 -177.33,55.527 -177.33,169.875 0,114.336 57.85,169.863 177.33,169.863 h 68.5 c 119.47,0 177.31,-55.527 177.31,-169.863 0,-82.938 -30.44,-134.895 -92.74,-157.199" /><path
         id="path28"
         style="fill:#ffffff;fill-opacity:1;fill-rule:nonzero;stroke:none"
         d="m 1415.02,410.422 c 0,11.75 -0.92,17.219 -9.6,17.219 -8.68,0 -9.59,-5.469 -9.59,-17.219 v -21.024 c 0,-11.738 0.91,-17.238 9.59,-17.238 8.68,0 9.6,5.5 9.6,17.238 z m -30.48,25.547 c 4.9,5.043 11.99,7.801 20.88,7.801 8.88,0 16.13,-2.758 21,-7.801 6.86,-7.059 7.41,-15.981 7.41,-28.758 v -14.742 c 0,-12.77 -0.55,-21.68 -7.41,-28.778 -4.87,-5.011 -12.12,-7.75 -21,-7.75 -8.89,0 -15.98,2.739 -20.88,7.75 -6.87,7.098 -7.44,16.008 -7.44,28.778 v 14.742 c 0,12.777 0.57,21.699 7.44,28.758" /><path
         id="path30"
         style="fill:#ffffff;fill-opacity:1;fill-rule:nonzero;stroke:none"
         d="m 1478.97,389.398 c 0,-12.109 1.83,-17.238 11.43,-17.238 9.71,0 11.41,5.262 11.41,17.238 v 52.161 h 18.48 V 385.16 c 0,-19.629 -9.56,-29.058 -29.89,-29.058 -20.21,0 -29.93,9.539 -29.93,29.058 v 56.399 h 18.5 v -52.161" /><path
         id="path32"
         style="fill:#ffffff;fill-opacity:1;fill-rule:nonzero;stroke:none"
         d="m 1564.35,425.488 h -21.15 v 16.071 h 60.73 v -16.071 h -21.11 v -67.379 h -18.47 v 67.379" /><path
         id="path34"
         style="fill:#ffffff;fill-opacity:1;fill-rule:nonzero;stroke:none"
         d="m 1636.71,383 c 4.8,-7.879 9.48,-11.539 16.22,-11.539 6.38,0 10.49,3.777 10.49,8.809 0,4.589 -2.95,7.98 -9.25,10.652 -8.19,3.379 -15.39,5.777 -20.65,9.867 -5.82,4.59 -8.79,11 -8.79,18.742 0,14.75 10.38,24.239 27.03,24.239 12.12,0 21.36,-5.032 27.31,-14.75 l -13.24,-9.489 c -4.44,6.278 -9.37,9.379 -15.08,9.379 -5.69,0 -9.24,-3.191 -9.24,-7.648 0,-4.25 3.3,-7.321 10.05,-10.293 8.44,-3.66 15.89,-6.047 20.9,-10.028 5.57,-4.48 8.78,-11.191 8.78,-19.312 0,-15.18 -11.42,-25.688 -28.76,-25.688 -13.15,0 -23.19,5.707 -30.15,16.879 l 14.38,10.18" /><path
         id="path36"
         style="fill:#ffffff;fill-opacity:1;fill-rule:nonzero;stroke:none"
         d="m 1728.37,403.332 h 5.15 c 11.66,0 16.01,2.477 16.01,11.988 0,9.571 -4.35,12.11 -16.01,12.11 h -5.15 z m 2.53,38.227 c 11.31,0 19.66,-0.438 25.72,-3.829 7.52,-4.269 11.63,-12.011 11.63,-22.281 0,-10.277 -4.11,-18.16 -11.63,-22.39 -5.95,-3.309 -14.41,-3.879 -25.72,-3.879 h -2.53 v -31.071 h -18.48 v 83.45 h 21.01" /><path
         id="path38"
         style="fill:#ffffff;fill-opacity:1;fill-rule:nonzero;stroke:none"
         d="m 1830.24,410.422 c 0,11.75 -0.92,17.219 -9.59,17.219 -8.68,0 -9.6,-5.469 -9.6,-17.219 v -21.024 c 0,-11.738 0.92,-17.238 9.6,-17.238 8.67,0 9.59,5.5 9.59,17.238 z m -30.48,25.547 c 4.9,5.043 11.99,7.801 20.89,7.801 8.91,0 16.09,-2.758 21.02,-7.801 6.83,-7.059 7.42,-15.981 7.42,-28.758 v -14.742 c 0,-12.77 -0.59,-21.68 -7.42,-28.778 -4.93,-5.011 -12.11,-7.75 -21.02,-7.75 -8.9,0 -15.99,2.739 -20.89,7.75 -6.86,7.098 -7.42,16.008 -7.42,28.778 v 14.742 c 0,12.777 0.56,21.699 7.42,28.758" /><path
         id="path40"
         style="fill:#ffffff;fill-opacity:1;fill-rule:nonzero;stroke:none"
         d="m 1925.43,441.559 h 19.75 l -24.88,-38.547 29.08,-44.903 h -21.77 l -27.17,43.493 z m -44.51,0 h 18.48 v -83.45 h -18.48 v 83.45" /><path
         id="path42"
         style="fill:#ffffff;fill-opacity:1;fill-rule:nonzero;stroke:none"
         d="m 1975.8,441.559 h 56.29 v -16.071 h -37.79 v -14.949 h 25.77 V 394.43 h -25.77 v -20.231 h 40.15 v -16.09 h -58.65 v 83.45" /><path
         id="path44"
         style="fill:#ffffff;fill-opacity:1;fill-rule:nonzero;stroke:none"
         d="m 2064.28,441.559 h 17.81 l 26.69,-50.637 -0.31,50.637 h 16.08 v -83.45 h -15.19 l -29.32,56.411 0.33,-56.411 h -16.09 v 83.45" /><path
         id="path46"
         style="fill:#ffffff;fill-opacity:1;fill-rule:nonzero;stroke:none"
         d="m 2163.73,375.551 h 17.88 v -17.442 h -17.88 v 17.442" /><path
         id="path48"
         style="fill:#ffffff;fill-opacity:1;fill-rule:nonzero;stroke:none"
         d="m 2250.63,410.422 c 0,11.75 -0.91,17.219 -9.59,17.219 -8.64,0 -9.54,-5.469 -9.54,-17.219 v -21.024 c 0,-11.738 0.9,-17.238 9.54,-17.238 8.68,0 9.59,5.5 9.59,17.238 z m -30.46,25.547 c 4.91,5.043 11.99,7.801 20.87,7.801 8.92,0 16.12,-2.758 21.03,-7.801 6.85,-7.059 7.42,-15.981 7.42,-28.758 v -14.742 c 0,-12.77 -0.57,-21.68 -7.42,-28.778 -4.91,-5.011 -12.11,-7.75 -21.03,-7.75 -8.88,0 -15.96,2.739 -20.87,7.75 -6.84,7.098 -7.44,16.008 -7.44,28.778 v 14.742 c 0,12.777 0.6,21.699 7.44,28.758" /><path
         id="path50"
         style="fill:#ffffff;fill-opacity:1;fill-rule:nonzero;stroke:none"
         d="m 2314.61,389.398 c 0,-12.109 1.85,-17.238 11.42,-17.238 9.72,0 11.42,5.262 11.42,17.238 v 52.161 h 18.52 V 385.16 c 0,-19.629 -9.61,-29.058 -29.94,-29.058 -20.18,0 -29.91,9.539 -29.91,29.058 v 56.399 h 18.49 v -52.161" /><path
         id="path52"
         style="fill:#ffffff;fill-opacity:1;fill-rule:nonzero;stroke:none"
         d="m 2399.97,425.488 h -21.09 v 16.071 h 60.72 v -16.071 h -21.14 v -67.379 h -18.49 v 67.379" /><path
         id="path54"
         style="fill:#ffffff;fill-opacity:1;fill-rule:nonzero;stroke:none"
         d="m 2472.37,383 c 4.8,-7.879 9.46,-11.539 16.17,-11.539 6.44,0 10.54,3.777 10.54,8.809 0,4.589 -3,7.98 -9.23,10.652 -8.25,3.379 -15.42,5.777 -20.71,9.867 -5.77,4.59 -8.77,11 -8.77,18.742 0,14.75 10.4,24.239 27.07,24.239 12.11,0 21.35,-5.032 27.28,-14.75 l -13.26,-9.489 c -4.44,6.278 -9.3,9.379 -15.03,9.379 -5.73,0 -9.26,-3.191 -9.26,-7.648 0,-4.25 3.31,-7.321 10.01,-10.293 8.45,-3.66 15.88,-6.047 20.9,-10.028 5.61,-4.48 8.78,-11.191 8.78,-19.312 0,-15.18 -11.41,-25.688 -28.74,-25.688 -13.13,0 -23.21,5.707 -30.13,16.879 l 14.38,10.18" /><path
         id="path56"
         style="fill:#ffffff;fill-opacity:1;fill-rule:nonzero;stroke:none"
         d="m 2557.74,425.488 h -21.11 v 16.071 h 60.76 v -16.071 h -21.13 v -67.379 h -18.52 v 67.379" /><path
         id="path58"
         style="fill:#ffffff;fill-opacity:1;fill-rule:nonzero;stroke:none"
         d="m 2654.2,389.082 -8.88,37.648 -9.03,-37.648 z m 3.54,-14.301 h -25.11 l -4.31,-16.672 h -17.95 l 23.98,83.45 h 21.75 l 24.04,-83.45 h -17.94 l -4.46,16.672" /><path
         id="path60"
         style="fill:#ffffff;fill-opacity:1;fill-rule:nonzero;stroke:none"
         d="m 2705.49,441.559 h 17.76 l 26.78,-50.637 -0.35,50.637 h 16.08 v -83.45 h -15.13 l -29.35,56.411 0.27,-56.411 h -16.06 v 83.45" /><path
         id="path62"
         style="fill:#ffffff;fill-opacity:1;fill-rule:nonzero;stroke:none"
         d="m 2820.79,374.199 c 12.03,0 16.77,4.801 16.77,16.903 v 17.589 c 0,12.09 -4.69,16.797 -16.77,16.797 h -4.33 v -51.289 z m 1.26,67.36 c 10.4,0 17.94,-0.438 23.51,-4.207 6.74,-4.571 10.77,-13.27 10.77,-24.653 v -25.551 c 0,-11.476 -4.03,-20.25 -10.77,-24.687 -5.47,-3.641 -13.11,-4.352 -23.51,-4.352 h -24.07 v 83.45 h 24.07" /><path
         id="path64"
         style="fill:#ffffff;fill-opacity:1;fill-rule:nonzero;stroke:none"
         d="m 2880.43,366 h 9.47 v 68.281 h -9.47 v 7.278 H 2918 v -7.278 h -9.62 V 366 h 9.62 v -7.891 h -37.57 V 366" /><path
         id="path66"
         style="fill:#ffffff;fill-opacity:1;fill-rule:nonzero;stroke:none"
         d="m 2944.47,441.559 h 17.82 l 26.67,-50.637 -0.33,50.637 h 16.13 v -83.45 h -15.23 l -29.35,56.411 0.4,-56.411 h -16.11 v 83.45" /><path
         id="path68"
         style="fill:#ffffff;fill-opacity:1;fill-rule:nonzero;stroke:none"
         d="m 3044.94,435.969 c 4.75,5.043 11.99,7.801 20.88,7.801 16.88,0 27.53,-9.641 28.35,-25.719 h -18.81 c -0.43,6.308 -3.74,9.59 -9.54,9.59 -9.14,0 -9.64,-5.813 -9.64,-17.219 v -21.024 c 0,-11.308 0.5,-17.238 9.64,-17.238 6.73,0 9.54,3.988 9.54,12.699 v 3.18 h -9.65 v 14.262 h 28.46 v -45.219 h -8.26 l -2.64,6.77 c -4.9,-5.493 -10.37,-7.911 -18.03,-7.911 -8.44,0 -15.65,2.879 -20.3,7.75 -6.89,7.098 -7.44,15.891 -7.44,28.778 v 14.742 c 0,12.777 0.55,21.699 7.44,28.758" /><path
         id="path70"
         style="fill:#ffffff;fill-opacity:1;fill-rule:nonzero;stroke:none"
         d="M 3127.05,375.551 H 3145 v -17.442 h -17.95 v 17.442" /><path
         id="path72"
         style="fill:#ffffff;fill-opacity:1;fill-rule:nonzero;stroke:none"
         d="m 223.48,726.305 c 6.75,-196.34 103,-335.016 184.512,-409.407 83.203,-77.218 151.66,-90.168 141.535,-100.078 -2.14,-3.922 -82.07,-0.199 -172.441,77.852 -88.574,74.519 -187.57,223.34 -186.047,428.07 -2.168,204.363 85.215,356.978 157.277,445.398 74.559,90.55 133.789,116.88 132.547,117.44 23.321,7.11 -263.027,-152.91 -257.383,-559.275" /><path
         id="path74"
         style="fill:#ffffff;fill-opacity:1;fill-rule:nonzero;stroke:none"
         d="m 172.809,594.008 c 14.793,-8.02 28.992,-20.938 46.347,-45.879 16.258,-24.082 36.922,-58.684 39.52,-90.828 2.754,-32.289 -16.297,-43.961 -34.414,-44.93 -19.071,-0.699 -36.59,9.449 -53.797,26.25 -35.168,33.688 -81.0744,105.914 -76.6916,147.887 5.2344,39.551 49.7856,21.402 79.0356,7.5" /><path
         id="path76"
         style="fill:#ffffff;fill-opacity:1;fill-rule:nonzero;stroke:none"
         d="m 241.129,400.02 c 15.965,1.082 32.832,-3.211 55.957,-18.11 21.902,-14.609 50.644,-38.16 62.793,-68.988 12.324,-30.863 -0.645,-52.41 -16.184,-63.281 -16.484,-11.071 -35.136,-10.832 -55.808,-4.2 -41.895,13.5 -106.867,54.059 -116.633,96.95 -8.074,41.629 38.926,53.859 69.875,57.629" /><path
         id="path78"
         style="fill:#ffffff;fill-opacity:1;fill-rule:nonzero;stroke:none"
         d="m 356.254,503.227 c 2.305,-22.258 2.871,-42.887 -1.973,-64.036 -4.726,-19.722 -14.843,-40.75 -33.086,-30.461 -18.328,10.231 -31.668,46.622 -36.629,75.29 -5.265,30.21 -3.625,52.437 0.645,72.156 8.965,39.023 30.703,90.566 46.023,76.863 14.336,-15.32 18.723,-85.129 25.02,-129.812" /><path
         id="path80"
         style="fill:#ffffff;fill-opacity:1;fill-rule:nonzero;stroke:none"
         d="m 355.445,245.141 c 5.918,13.16 14.688,22.449 30.614,26.179 15.304,3.27 37.48,1.36 55.527,-17.711 18.105,-18.949 21.66,-44.437 20.195,-62.711 -1.816,-19.07 -9.129,-30.289 -19.961,-38.476 -22.175,-15.402 -62.851,-33.34 -86.035,-9.16 -22.383,25.457 -11.414,75.25 -0.34,101.879" /><path
         id="path82"
         style="fill:#ffffff;fill-opacity:1;fill-rule:nonzero;stroke:none"
         d="m 439.313,385.121 c 5.007,-18.949 8.035,-36.73 5.808,-55.742 -2.293,-17.77 -9.773,-37.359 -28.613,-30.848 -18.906,6.449 -36.016,36.129 -44.422,60.11 -8.879,25.32 -10.227,44.64 -8.742,62.16 3.457,34.758 16.875,82.172 33.828,72.687 16.367,-11.019 30.527,-70.578 42.141,-108.367" /><path
         id="path84"
         style="fill:#ffffff;fill-opacity:1;fill-rule:nonzero;stroke:none"
         d="m 168.891,781.207 c 8.605,-15.625 15.929,-34.355 22.968,-63.379 6.399,-27.742 13.926,-65.129 7.629,-89.094 -6.269,-24.152 -24.355,-20.117 -38.293,-9.113 -14.636,11.875 -24.851,30.274 -32.851,53.289 -16.766,46.149 -28.7776,129.469 -15.164,157.242 13.113,25.078 37.851,-19.609 55.711,-48.945" /><path
         id="path86"
         style="fill:#ffffff;fill-opacity:1;fill-rule:nonzero;stroke:none"
         d="M 291.762,652.648 C 289.469,632.25 286,613.852 277.895,596.566 c -7.723,-16.054 -20.235,-31.562 -33.231,-17.519 -13.066,13.984 -16.926,49.375 -15.578,75.859 1.426,27.949 6.914,47.141 14.062,63.5 14.59,32.176 41.731,73.106 51.848,57 9.07,-17.402 0.039,-81.453 -3.234,-122.758" /><path
         id="path88"
         style="fill:#ffffff;fill-opacity:1;fill-rule:nonzero;stroke:none"
         d="m 206.637,948.426 c 3.008,-17.844 4.551,-37.688 3.886,-65.996 -0.898,-26.914 -2.773,-62.188 -12.832,-79.239 -10.097,-17.226 -23.457,-5.07 -31.718,11.024 -8.653,17.129 -12.266,37.695 -13.086,61.211 -2.305,47.226 8.711,125.934 24.832,143.844 14.863,15.55 21.816,-36.637 28.918,-70.844" /><path
         id="path90"
         style="fill:#ffffff;fill-opacity:1;fill-rule:nonzero;stroke:none"
         d="m 271.813,797.098 c -5.989,-14.844 -12.551,-27.395 -22.356,-36.633 -9.266,-8.496 -22.031,-13.887 -28.223,3.242 -6.23,17.109 -0.964,45.84 5.735,65.664 7.078,20.91 15,33.281 23.445,42.766 17.012,18.23 44.16,39.199 48.391,21.551 3.289,-18.446 -15.742,-66.094 -26.992,-96.59" /><path
         id="path92"
         style="fill:#ffffff;fill-opacity:1;fill-rule:nonzero;stroke:none"
         d="m 261.313,1063.23 c -0.801,-16.14 -2.911,-33.5 -8.008,-57.11 -5.008,-22.362 -12.149,-51.124 -22.344,-61.866 -10.254,-10.859 -17.949,3.633 -21.152,19.668 -3.301,17.062 -2.332,35.285 1.125,55.178 6.453,39.97 27.988,103.53 42.234,114.09 12.91,8.75 8.664,-38.62 8.145,-69.96" /><path
         id="path94"
         style="fill:#ffffff;fill-opacity:1;fill-rule:nonzero;stroke:none"
         d="m 291.723,933.648 c -8.399,-11.796 -16.817,-21.015 -27.285,-25.437 -9.813,-3.977 -21.973,-3.195 -23.153,16.336 -1.222,19.531 10.078,45.019 20.371,61.367 10.867,17.166 20.321,25.746 29.5,31.246 18.301,10.16 45.403,19.14 44.914,-0.23 -1.425,-19.864 -27.949,-58.692 -44.347,-83.282" /><path
         id="path96"
         style="fill:#ffffff;fill-opacity:1;fill-rule:nonzero;stroke:none"
         d="m 330.082,1051.44 c -8.34,-6.73 -16.172,-11.03 -24.297,-10.04 -7.566,1.1 -15.566,7.58 -11.726,25.46 3.828,17.84 17.371,35.28 27.968,45.34 11.192,10.55 19.364,14.12 26.649,15.08 14.308,1.11 34.308,-1.99 29.804,-19.64 -5.242,-17.81 -31.718,-41.78 -48.398,-56.2" /><path
         id="path98"
         style="fill:#ffffff;fill-opacity:1;fill-rule:nonzero;stroke:none"
         d="m 389.859,1149.47 c -8.078,-5 -15.371,-7.87 -22.129,-5.96 -6.281,1.94 -12.167,8.77 -6.308,24.26 5.828,15.47 19.902,29.39 30.418,37.15 11.094,8.12 18.605,10.39 24.973,10.4 12.371,-0.68 29.042,-5.76 22.578,-21.12 -7.121,-15.47 -33.254,-33.89 -49.532,-44.73" /><path
         id="path100"
         style="fill:#ffffff;fill-opacity:1;fill-rule:nonzero;stroke:none"
         d="m 465.172,1249.88 c -9.942,-7.89 -19.063,-14.1 -28.457,-17.22 -8.75,-2.79 -18.027,-2.53 -14.016,10.15 3.977,12.65 19.395,29.43 31.973,40.19 13.254,11.35 23.332,17.09 32.453,20.86 17.918,7.03 43.348,13.36 37.43,0.9 -6.922,-12.75 -39.676,-38.42 -59.383,-54.88" /><path
         id="path102"
         style="fill:#ffffff;fill-opacity:1;fill-rule:nonzero;stroke:none"
         d="m 329.527,1167.83 c -4.445,-14.77 -9.855,-30 -18.554,-49.45 -8.371,-18.34 -19.453,-41.14 -28.664,-46.06 -9.305,-5.04 -11.2,11.54 -9.493,27.56 1.836,16.95 6.875,33.07 14.024,49.76 13.887,33.49 44.375,83.97 55.937,88.09 10.02,2.73 -5.496,-40.88 -13.25,-69.9" /><path
         id="path104"
         style="fill:#ffffff;fill-opacity:1;fill-rule:nonzero;stroke:none"
         d="m 405.16,1240.65 c -7.461,-13.35 -15.437,-26.57 -26.472,-42.04 -10.54,-14.53 -23.79,-31.62 -30.782,-31.29 -7.082,0.25 -3.254,18.25 2.891,33.79 6.512,16.44 14.812,30.33 24.617,43.88 19.211,27.1 55.344,65.57 63,64.32 5.996,-2.28 -19.375,-42.04 -33.254,-68.66" /><path
         id="path106"
         style="fill:#ffffff;fill-opacity:1;fill-rule:nonzero;stroke:none"
         d="m 3540.15,726.305 c -6.75,-196.34 -103,-335.016 -184.52,-409.407 -83.2,-77.218 -151.65,-90.168 -141.53,-100.078 2.12,-3.922 82.09,-0.199 172.46,77.852 88.55,74.519 187.55,223.34 186.04,428.07 2.15,204.363 -85.21,356.978 -157.28,445.398 -74.57,90.55 -133.78,116.88 -132.54,117.44 -23.33,7.11 263.01,-152.91 257.37,-559.275" /><path
         id="path108"
         style="fill:#ffffff;fill-opacity:1;fill-rule:nonzero;stroke:none"
         d="m 3590.82,594.008 c -14.8,-8.02 -29,-20.938 -46.36,-45.879 -16.23,-24.082 -36.9,-58.684 -39.51,-90.828 -2.73,-32.289 16.3,-43.961 34.41,-44.93 19.08,-0.699 36.61,9.449 53.82,26.25 35.16,33.688 81.07,105.914 76.67,147.887 -5.22,39.551 -49.79,21.402 -79.03,7.5" /><path
         id="path110"
         style="fill:#ffffff;fill-opacity:1;fill-rule:nonzero;stroke:none"
         d="m 3522.51,400.02 c -15.98,1.082 -32.82,-3.211 -55.97,-18.11 -21.89,-14.609 -50.63,-38.16 -62.78,-68.988 -12.33,-30.863 0.64,-52.41 16.17,-63.281 16.49,-11.071 35.15,-10.832 55.81,-4.2 41.9,13.5 106.87,54.059 116.63,96.95 8.08,41.629 -38.91,53.859 -69.86,57.629" /><path
         id="path112"
         style="fill:#ffffff;fill-opacity:1;fill-rule:nonzero;stroke:none"
         d="m 3407.37,503.227 c -2.29,-22.258 -2.85,-42.887 1.99,-64.036 4.7,-19.722 14.83,-40.75 33.07,-30.461 18.33,10.231 31.67,46.622 36.64,75.29 5.28,30.21 3.63,52.437 -0.64,72.156 -8.97,39.023 -30.72,90.566 -46.03,76.863 -14.34,-15.32 -18.73,-85.129 -25.03,-129.812" /><path
         id="path114"
         style="fill:#ffffff;fill-opacity:1;fill-rule:nonzero;stroke:none"
         d="m 3408.17,245.141 c -5.91,13.16 -14.67,22.449 -30.59,26.179 -15.31,3.27 -37.48,1.36 -55.52,-17.711 -18.12,-18.949 -21.66,-44.437 -20.21,-62.711 1.82,-19.07 9.15,-30.289 19.98,-38.476 22.14,-15.402 62.82,-33.34 86.03,-9.16 22.36,25.457 11.39,75.25 0.31,101.879" /><path
         id="path116"
         style="fill:#ffffff;fill-opacity:1;fill-rule:nonzero;stroke:none"
         d="m 3324.32,385.121 c -5.01,-18.949 -8.03,-36.73 -5.8,-55.742 2.27,-17.77 9.78,-37.359 28.59,-30.848 18.92,6.449 36.03,36.129 44.43,60.11 8.89,25.32 10.23,44.64 8.75,62.16 -3.46,34.758 -16.87,82.172 -33.83,72.687 -16.37,-11.019 -30.53,-70.578 -42.14,-108.367" /><path
         id="path118"
         style="fill:#ffffff;fill-opacity:1;fill-rule:nonzero;stroke:none"
         d="m 3594.77,781.207 c -8.63,-15.625 -15.94,-34.355 -23,-63.379 -6.41,-27.742 -13.93,-65.129 -7.63,-89.094 6.27,-24.152 24.37,-20.117 38.3,-9.113 14.62,11.875 24.85,30.274 32.84,53.289 16.77,46.149 28.79,129.469 15.18,157.242 -13.12,25.078 -37.86,-19.609 -55.69,-48.945" /><path
         id="path120"
         style="fill:#ffffff;fill-opacity:1;fill-rule:nonzero;stroke:none"
         d="m 3471.88,652.648 c 2.28,-20.398 5.76,-38.796 13.85,-56.082 7.73,-16.054 20.25,-31.562 33.23,-17.519 13.07,13.984 16.93,49.375 15.58,75.859 -1.42,27.949 -6.92,47.141 -14.06,63.5 -14.6,32.176 -41.72,73.106 -51.85,57 -9.06,-17.402 -0.02,-81.453 3.25,-122.758" /><path
         id="path122"
         style="fill:#ffffff;fill-opacity:1;fill-rule:nonzero;stroke:none"
         d="m 3556.99,948.426 c -3.01,-17.844 -4.55,-37.688 -3.88,-65.996 0.9,-26.914 2.77,-62.188 12.84,-79.239 10.09,-17.226 23.44,-5.07 31.73,11.024 8.62,17.129 12.25,37.695 13.06,61.211 2.31,47.226 -8.71,125.934 -24.83,143.844 -14.87,15.55 -21.82,-36.637 -28.92,-70.844" /><path
         id="path124"
         style="fill:#ffffff;fill-opacity:1;fill-rule:nonzero;stroke:none"
         d="m 3491.83,797.098 c 5.97,-14.844 12.53,-27.395 22.34,-36.633 9.26,-8.496 22.04,-13.887 28.23,3.242 6.23,17.109 0.95,45.84 -5.74,65.664 -7.07,20.91 -15,33.281 -23.44,42.766 -17.03,18.23 -44.17,39.199 -48.39,21.551 -3.3,-18.446 15.75,-66.094 27,-96.59" /><path
         id="path126"
         style="fill:#ffffff;fill-opacity:1;fill-rule:nonzero;stroke:none"
         d="m 3502.3,1063.23 c 0.83,-16.14 2.92,-33.5 8.02,-57.11 5.01,-22.362 12.16,-51.124 22.35,-61.866 10.25,-10.859 17.95,3.633 21.16,19.668 3.3,17.062 2.32,35.285 -1.12,55.178 -6.46,39.97 -27.99,103.53 -42.23,114.09 -12.92,8.75 -8.67,-38.62 -8.18,-69.96" /><path
         id="path128"
         style="fill:#ffffff;fill-opacity:1;fill-rule:nonzero;stroke:none"
         d="m 3471.9,933.648 c 8.4,-11.796 16.83,-21.015 27.29,-25.437 9.81,-3.977 21.97,-3.195 23.17,16.336 1.23,19.531 -10.08,45.019 -20.39,61.367 -10.87,17.166 -20.32,25.746 -29.49,31.246 -18.31,10.16 -45.4,19.14 -44.9,-0.23 1.41,-19.864 27.94,-58.692 44.32,-83.282" /><path
         id="path130"
         style="fill:#ffffff;fill-opacity:1;fill-rule:nonzero;stroke:none"
         d="m 3433.55,1051.44 c 8.36,-6.73 16.17,-11.03 24.29,-10.04 7.57,1.1 15.58,7.58 11.73,25.46 -3.83,17.84 -17.37,35.28 -27.97,45.34 -11.17,10.55 -19.35,14.12 -26.64,15.08 -14.3,1.11 -34.32,-1.99 -29.8,-19.64 5.23,-17.81 31.72,-41.78 48.39,-56.2" /><path
         id="path132"
         style="fill:#ffffff;fill-opacity:1;fill-rule:nonzero;stroke:none"
         d="m 3373.78,1149.47 c 8.08,-5 15.36,-7.87 22.12,-5.96 6.28,1.94 12.18,8.77 6.32,24.26 -5.83,15.47 -19.91,29.39 -30.42,37.15 -11.11,8.12 -18.63,10.39 -24.99,10.4 -12.39,-0.68 -29.03,-5.76 -22.56,-21.12 7.11,-15.47 33.24,-33.89 49.53,-44.73" /><path
         id="path134"
         style="fill:#ffffff;fill-opacity:1;fill-rule:nonzero;stroke:none"
         d="m 3298.46,1249.88 c 9.95,-7.89 19.06,-14.1 28.47,-17.22 8.74,-2.79 18.01,-2.53 14.01,10.15 -3.98,12.65 -19.42,29.43 -31.98,40.19 -13.25,11.35 -23.33,17.09 -32.44,20.86 -17.93,7.03 -43.37,13.36 -37.45,0.9 6.92,-12.75 39.69,-38.42 59.39,-54.88" /><path
         id="path136"
         style="fill:#ffffff;fill-opacity:1;fill-rule:nonzero;stroke:none"
         d="m 3434.12,1167.83 c 4.42,-14.77 9.84,-30 18.54,-49.45 8.38,-18.34 19.44,-41.14 28.68,-46.06 9.29,-5.04 11.2,11.54 9.48,27.56 -1.83,16.95 -6.88,33.07 -14.01,49.76 -13.9,33.49 -44.4,83.97 -55.95,88.09 -10.04,2.73 5.49,-40.88 13.26,-69.9" /><path
         id="path138"
         style="fill:#ffffff;fill-opacity:1;fill-rule:nonzero;stroke:none"
         d="m 3358.49,1240.65 c 7.43,-13.35 15.43,-26.57 26.46,-42.04 10.53,-14.53 23.78,-31.62 30.79,-31.29 7.06,0.25 3.23,18.25 -2.91,33.79 -6.5,16.44 -14.81,30.33 -24.6,43.88 -19.22,27.1 -55.36,65.57 -63.02,64.32 -5.99,-2.28 19.39,-42.04 33.28,-68.66" /><path
         id="path140"
         style="fill:#ffffff;fill-opacity:1;fill-rule:nonzero;stroke:none"
         d="m 707.695,1176.61 c 0,-16.94 3.297,-29.05 19.137,-29.05 19.141,0 19.141,17.83 19.141,29.05 v 56.1 c 0,11.22 0,24.86 -18.7,24.86 -19.578,0 -19.578,-18.48 -19.578,-24.86 z m -36.086,50.59 c 0,16.51 2.864,32.35 14.082,44.67 10.125,11.22 25.301,15.4 40.481,15.4 16.5,0 31.68,-3.96 42.461,-15.62 9.019,-9.69 14.082,-23.98 14.082,-49.94 v -39.16 c 0,-22.66 -3.738,-37.17 -13.863,-48.18 -13.418,-14.52 -32.778,-16.07 -43.122,-16.07 -15.835,0 -41.792,5.73 -49.933,33.01 -3.524,11.44 -4.188,25.52 -4.188,32.56 v 43.33" /><path
         id="path142"
         style="fill:#ffffff;fill-opacity:1;fill-rule:nonzero;stroke:none"
         d="M 826.711,1284.19 H 934.07 v -29.49 h -71.722 v -34.75 h 47.742 v -29.92 h -47.742 v -67.32 h -35.637 v 161.48" /><path
         id="path144"
         style="fill:#ffffff;fill-opacity:1;fill-rule:nonzero;stroke:none"
         d="m 969.926,1284.19 h 107.364 v -29.49 h -71.72 v -34.75 h 47.74 v -29.92 h -47.74 v -67.32 h -35.644 v 161.48" /><path
         id="path146"
         style="fill:#ffffff;fill-opacity:1;fill-rule:nonzero;stroke:none"
         d="m 1101.71,1122.71 v 14.31 h 18.92 v 133.09 h -18.92 v 14.08 h 73.7 v -14.08 h -19.15 v -132.66 h 19.15 v -14.74 h -73.7" /><path
         id="path148"
         style="fill:#ffffff;fill-opacity:1;fill-rule:nonzero;stroke:none"
         d="m 1208.41,1229.85 c 0,36.95 19.8,57.86 57.42,57.86 9.68,0 24.19,-1.98 35.42,-10.78 14.52,-11.45 16.27,-31.24 16.71,-44.22 h -35.42 c -0.22,7.92 -0.66,25.52 -18.25,25.52 -4.4,0 -9.91,-1.76 -13.43,-5.06 -5.71,-5.28 -5.93,-13.2 -5.93,-17.6 v -61.38 c 0,-8.8 0,-25.74 19.58,-25.74 14.51,0 18.92,11.89 18.92,29.26 h 35.64 c -0.22,-11.66 -0.45,-12.98 -1.55,-19.8 -1.31,-6.38 -3.52,-18.04 -16.93,-28.82 -11.44,-9.24 -28.16,-10.79 -35.2,-10.79 -18.71,0 -31.68,4.41 -41.81,14.31 -6.59,6.38 -15.17,15.62 -15.17,48.62 v 48.62" /><path
         id="path150"
         style="fill:#ffffff;fill-opacity:1;fill-rule:nonzero;stroke:none"
         d="m 1351.62,1122.71 v 14.31 h 18.92 v 133.09 h -18.92 v 14.08 h 73.7 v -14.08 h -19.14 v -132.66 h 19.14 v -14.74 h -73.7" /><path
         id="path152"
         style="fill:#ffffff;fill-opacity:1;fill-rule:nonzero;stroke:none"
         d="m 1513.54,1255.37 h -0.88 l -17.6,-73.05 h 36.3 z m 20.9,28.82 46.64,-161.48 h -34.54 l -8.14,32.11 h -49.5 l -8.36,-32.11 h -34.53 l 45.53,161.48 h 42.9" /><path
         id="path154"
         style="fill:#ffffff;fill-opacity:1;fill-rule:nonzero;stroke:none"
         d="m 1612.32,1284.19 h 36.08 v -131.33 h 71.06 v -30.15 h -107.14 v 161.48" /><path
         id="path156"
         style="fill:#ffffff;fill-opacity:1;fill-rule:nonzero;stroke:none"
         d="m 1901.63,1240.85 c -5.07,9.67 -15.41,18.03 -27.95,18.03 -18.48,0 -18.92,-13.85 -18.92,-15.61 0,-11.44 10.56,-16.07 20.46,-19.58 l 20.46,-7.48 c 9.68,-3.52 21.13,-10.12 27.5,-18.92 1.99,-2.65 9.02,-13.2 9.02,-28.38 0,-7.27 0,-28.83 -22.87,-42.68 -9.47,-5.72 -22.89,-8.14 -31.03,-8.14 -28.38,0 -45.1,6.82 -59.62,32.77 l 27.5,18.27 c 5.94,-13.64 16.72,-22 30.58,-22 7.7,0 21.56,3.52 21.56,18.26 0,12.1 -6.6,14.74 -30.8,24.2 -24.42,9.46 -45.54,20.23 -45.54,52.14 0,26.62 19.36,45.76 52.58,45.76 23.76,0 40.49,-9.69 53.68,-29.04 l -26.61,-17.6" /><path
         id="path158"
         style="fill:#ffffff;fill-opacity:1;fill-rule:nonzero;stroke:none"
         d="m 1970.7,1284.19 h 108.46 v -29.49 h -73.25 v -34.31 h 50.37 v -29.48 h -49.94 v -38.05 h 77.89 v -30.15 H 1970.7 v 161.48" /><path
         id="path160"
         style="fill:#ffffff;fill-opacity:1;fill-rule:nonzero;stroke:none"
         d="m 2123.6,1284.19 h 36.08 v -131.33 h 71.05 v -30.15 H 2123.6 v 161.48" /><path
         id="path162"
         style="fill:#ffffff;fill-opacity:1;fill-rule:nonzero;stroke:none"
         d="m 2269.46,1284.19 h 108.46 v -29.49 h -73.26 v -34.31 h 50.39 v -29.48 h -49.94 v -38.05 h 77.87 v -30.15 h -113.52 v 161.48" /><path
         id="path164"
         style="fill:#ffffff;fill-opacity:1;fill-rule:nonzero;stroke:none"
         d="m 2423.9,1229.85 c 0,36.95 19.8,57.86 57.42,57.86 9.69,0 24.2,-1.98 35.43,-10.78 14.51,-11.45 16.27,-31.24 16.72,-44.22 h -35.43 c -0.22,7.92 -0.67,25.52 -18.26,25.52 -4.4,0 -9.91,-1.76 -13.42,-5.06 -5.73,-5.28 -5.94,-13.2 -5.94,-17.6 v -61.38 c 0,-8.8 0,-25.74 19.57,-25.74 14.53,0 18.93,11.89 18.93,29.26 h 35.64 c -0.21,-11.66 -0.45,-12.98 -1.54,-19.8 -1.33,-6.38 -3.52,-18.04 -16.94,-28.82 -11.44,-9.24 -28.16,-10.79 -35.19,-10.79 -18.71,0 -31.7,4.41 -41.82,14.31 -6.6,6.38 -15.17,15.62 -15.17,48.62 v 48.62" /><path
         id="path166"
         style="fill:#ffffff;fill-opacity:1;fill-rule:nonzero;stroke:none"
         d="m 2687.67,1284.19 v -29.49 h -40.26 v -131.99 h -36.95 v 131.99 h -41.13 v 29.49 h 118.34" /><path
         id="path168"
         style="fill:#ffffff;fill-opacity:1;fill-rule:nonzero;stroke:none"
         d="m 2710.32,1122.71 v 14.31 h 18.93 v 133.09 h -18.93 v 14.08 h 73.71 v -14.08 h -19.14 v -132.66 h 19.14 v -14.74 h -73.71" /><path
         id="path170"
         style="fill:#ffffff;fill-opacity:1;fill-rule:nonzero;stroke:none"
         d="m 2852.67,1176.61 c 0,-16.94 3.3,-29.05 19.14,-29.05 19.14,0 19.14,17.83 19.14,29.05 v 56.1 c 0,11.22 0,24.86 -18.69,24.86 -19.59,0 -19.59,-18.48 -19.59,-24.86 z m -36.08,50.59 c 0,16.51 2.87,32.35 14.08,44.67 10.12,11.22 25.3,15.4 40.49,15.4 16.49,0 31.68,-3.96 42.46,-15.62 9.01,-9.69 14.07,-23.98 14.07,-49.94 v -39.16 c 0,-22.66 -3.73,-37.17 -13.85,-48.18 -13.42,-14.52 -32.8,-16.07 -43.13,-16.07 -15.84,0 -41.79,5.73 -49.94,33.01 -3.51,11.44 -4.18,25.52 -4.18,32.56 v 43.33" /><path
         id="path172"
         style="fill:#ffffff;fill-opacity:1;fill-rule:nonzero;stroke:none"
         d="m 2975.44,1284.19 h 33.87 l 41.58,-75.46 c 1.76,-3.3 3.96,-7.7 5.51,-11 0.64,-1.32 2.85,-7.27 3.51,-8.36 h 1.1 l -0.88,16.28 c -0.67,11 -0.67,12.31 -0.67,18.48 v 60.06 h 32.56 V 1122.71 H 3063 l -42.91,78.32 c -3.52,6.38 -3.73,7.04 -12.09,26.62 h -1.12 c 0.24,-4.63 1.12,-25.08 1.12,-29.26 v -75.68 h -32.56 v 161.48" /><path
         id="path174"
         style="fill:#ffffff;fill-opacity:1;fill-rule:nonzero;stroke:none"
         d="m 682.813,267.969 v 22.562 c 8.398,23.278 24.003,40.809 51.125,61.688 19.679,14.883 29.042,24.961 29.042,40.082 0,14.398 -7.921,23.519 -21.843,23.519 -12.719,0 -21.84,-7.672 -32.403,-29.519 l -28.324,13.437 c 13.203,29.293 30.723,43.922 62.168,43.922 38.402,0 56.16,-20.871 56.16,-50.64 0,-27.36 -12.957,-40.559 -41.039,-60.481 -20.883,-14.879 -31.445,-24.73 -36.484,-37.207 h 79.687 V 267.969 H 682.813" /><path
         id="path176"
         style="fill:#ffffff;fill-opacity:1;fill-rule:nonzero;stroke:none"
         d="m 907.699,366.379 c 0,29.762 -8.164,48.242 -26.644,48.242 -18.239,0 -26.403,-18.48 -26.403,-48 v -24.242 c 0,-29.758 8.164,-48.25 26.403,-48.25 18.48,0 26.644,18.25 26.644,48.012 z M 881.055,265.09 c -39.602,0 -65.524,29.039 -65.524,81.609 v 15.36 c 0,52.562 25.922,81.601 65.524,81.601 39.605,0 65.527,-29.039 65.527,-81.601 v -15.36 c 0,-52.57 -25.922,-81.609 -65.527,-81.609" /><path
         id="path178"
         style="fill:#ffffff;fill-opacity:1;fill-rule:nonzero;stroke:none"
         d="m 961.934,267.969 v 22.562 c 8.398,23.278 24.004,40.809 51.126,61.688 19.68,14.883 29.04,24.961 29.04,40.082 0,14.398 -7.92,23.519 -21.84,23.519 -12.72,0 -21.842,-7.672 -32.405,-29.519 l -28.324,13.437 c 13.203,29.293 30.723,43.922 62.169,43.922 38.4,0 56.16,-20.871 56.16,-50.64 0,-27.36 -12.96,-40.559 -41.04,-60.481 -20.88,-14.879 -31.44,-24.73 -36.48,-37.207 h 79.68 V 267.969 H 961.934" /><path
         id="path180"
         style="fill:#ffffff;fill-opacity:1;fill-rule:nonzero;stroke:none"
         d="m 1186.82,366.379 c 0,29.762 -8.16,48.242 -26.64,48.242 -18.24,0 -26.41,-18.48 -26.41,-48 v -24.242 c 0,-29.758 8.17,-48.25 26.41,-48.25 18.48,0 26.64,18.25 26.64,48.012 z M 1160.18,265.09 c -39.6,0 -65.53,29.039 -65.53,81.609 v 15.36 c 0,52.562 25.93,81.601 65.53,81.601 39.6,0 65.52,-29.039 65.52,-81.601 v -15.36 c 0,-52.57 -25.92,-81.609 -65.52,-81.609" /></g></g></svg>